<?xml version="1.0" encoding="UTF-8"?>
<svg version="1.1" xmlns="http://www.w3.org/2000/svg" width="512" height="512">
<path d="M0 0 C1.66046871 -0.00807831 1.66046871 -0.00807831 3.35448223 -0.01631981 C7.05927534 -0.03061338 10.76371186 -0.02349197 14.46852112 -0.01637268 C17.12650176 -0.0220755 19.7844569 -0.02893889 22.44242859 -0.03717041 C28.90990059 -0.05434861 35.3772754 -0.05520049 41.84476428 -0.04995751 C47.10245279 -0.04591285 52.36011262 -0.04736287 57.61779976 -0.05270576 C58.36666444 -0.05345419 59.11552913 -0.05420261 59.88708668 -0.05497371 C61.4084971 -0.05650522 62.92990751 -0.05804356 64.45131791 -0.05958868 C78.71214146 -0.0733101 92.97291012 -0.06787848 107.23373241 -0.05640347 C120.27415458 -0.0464708 133.31443486 -0.05941292 146.35483515 -0.08333766 C159.75253717 -0.10773229 173.15017313 -0.11733568 186.54789692 -0.11068493 C194.06659481 -0.1071936 201.58518359 -0.1094191 209.10386467 -0.12693596 C215.50411903 -0.14166249 221.90418743 -0.14228757 228.30443817 -0.12486505 C231.56831756 -0.1163563 234.8317967 -0.11637278 238.0956707 -0.1295166 C241.637662 -0.14269137 245.17875074 -0.13120864 248.72070312 -0.11352539 C249.74707254 -0.1231304 250.77344196 -0.1327354 251.83091348 -0.14263147 C258.15162739 -0.07771669 262.56884032 1.00588199 267.92384338 4.38768005 C268.81071838 4.94455505 269.69759338 5.50143005 270.61134338 6.07518005 C275.76300769 11.22684436 278.67309049 17.50576953 279.04689121 24.78329945 C279.04596942 25.61936568 279.04504763 26.45543192 279.0440979 27.3168335 C279.0461599 28.76596382 279.0461599 28.76596382 279.04826355 30.24436951 C279.04466827 31.29237732 279.041073 32.34038513 279.03736877 33.42015076 C279.0375148 34.53278793 279.03766083 35.64542511 279.03781128 36.79177856 C279.03711518 40.46569271 279.02933689 44.13955602 279.02149963 47.8134613 C279.01963438 50.36222303 279.01821098 52.91098511 279.01721191 55.45974731 C279.01378521 61.48030541 279.00590543 67.50084172 278.99586242 73.52139109 C278.98467456 80.37748047 278.9791841 87.23357073 278.97416699 94.08966696 C278.96372208 108.18901474 278.94613932 122.2883464 278.92384338 136.38768005 C279.85868026 136.38491467 280.79351713 136.3821493 281.7566824 136.37930012 C304.51718189 136.31266239 327.27766871 136.26338421 350.0382452 136.23224354 C361.04514982 136.21678336 372.05198993 136.19571002 383.05885315 136.16136169 C392.65390792 136.1314334 402.24891598 136.11209888 411.84401613 136.10541457 C416.92320926 136.10150814 422.00226875 136.09234507 427.08141899 136.07048988 C431.86579895 136.0500706 436.6499907 136.04385726 441.4344101 136.04835701 C443.18671505 136.04753424 444.93902655 136.04160111 446.69129372 136.03006363 C468.40929219 135.89412508 468.40929219 135.89412508 476.2481181 143.47205991 C482.13793982 150.20506159 483.66103592 157.43077385 483.5587616 166.12779236 C483.56656155 167.1624197 483.5743615 168.19704703 483.58239782 169.26302671 C483.60222838 172.70533836 483.58658747 176.14653348 483.57081604 179.58885193 C483.57759608 182.06668744 483.58650138 184.5445179 483.59736633 187.02233887 C483.61776014 193.039004 483.61482901 199.0552363 483.60030313 205.07188427 C483.58898325 209.9643205 483.58749182 214.85666941 483.59292221 219.74911499 C483.59368838 220.44703926 483.59445454 221.14496352 483.59524392 221.86403701 C483.59684265 223.28212538 483.59846372 224.70021373 483.60010688 226.11830205 C483.61434395 239.39684826 483.59800384 252.67522151 483.57110505 265.95373935 C483.54876806 277.33235953 483.55264876 288.71072462 483.57569885 300.08934021 C483.60249308 313.32232308 483.61297085 326.55515459 483.59763753 339.7881608 C483.59604489 341.20085555 483.59447303 342.61355032 483.59292221 344.02624512 C483.59176514 345.06868947 483.59176514 345.06868947 483.5905847 346.1321933 C483.58627854 351.01532055 483.59353077 355.89835132 483.60531998 360.78146362 C483.62085684 367.36110848 483.60969958 373.94034762 483.58084869 380.51997185 C483.57425041 382.93138265 483.5761139 385.34283407 483.58716202 387.75422859 C483.60087782 391.05255012 483.58362659 394.34934294 483.5587616 397.64756775 C483.56991521 398.59602806 483.58106881 399.54448836 483.59256041 400.52168989 C483.48252732 408.07489884 481.31706476 414.61130072 476.19780791 420.30861712 C467.78432521 428.35139138 457.77284362 427.77089041 446.92384338 427.57518005 C445.46682595 427.56010746 444.00979345 427.5464236 442.55274963 427.53416443 C439.00946414 427.50135909 435.46675167 427.44971913 431.92384338 427.38768005 C431.93272583 428.37882309 431.94160828 429.36996613 431.95075989 430.3911438 C432.03186626 439.73427343 432.09181862 449.07733158 432.13109207 458.42073345 C432.15196185 463.22423672 432.18026837 468.02745566 432.2256012 472.83079529 C432.26908069 477.46680303 432.29298508 482.10253738 432.30335236 486.73873329 C432.31073996 488.50698462 432.32516632 490.27522108 432.34676361 492.04335594 C432.37582611 494.52133321 432.37979828 496.99818267 432.37794495 499.4763031 C432.39232605 500.2063858 432.40670715 500.93646851 432.42152405 501.68867493 C432.39226961 505.30650068 432.00286336 507.26434279 430.03193665 510.34063721 C427.92384338 512.38768005 427.92384338 512.38768005 425.74024963 513.05174255 C424.99646057 513.03885193 424.25267151 513.0259613 423.48634338 513.01268005 C422.74513245 513.02557068 422.00392151 513.0384613 421.24024963 513.05174255 C415.32705199 511.35655942 411.0898286 504.09582584 407.29884338 499.45018005 C406.68275208 498.69873718 406.06666077 497.94729431 405.43190002 497.17308044 C401.23706132 492.04038674 397.11363503 486.85622088 393.03858948 481.62815857 C389.55663222 477.16797346 386.00191696 472.77101678 382.42384338 468.38768005 C377.92342568 462.87323249 373.48748408 457.31542454 369.10987854 451.70310974 C364.8446408 446.25022257 360.47069308 440.88747232 356.07423401 435.5400238 C355.54765198 434.89678162 355.02106995 434.25353943 354.47853088 433.59080505 C354.009151 433.02007263 353.53977112 432.44934021 353.0561676 431.86131287 C351.92384338 430.38768005 351.92384338 430.38768005 350.92384338 428.38768005 C350.12907907 428.38713529 349.33431477 428.38659052 348.51546669 428.38602924 C329.15096946 428.37104289 309.78671037 428.32852115 290.4223423 428.25558949 C281.05774471 428.22097942 271.69329372 428.19558919 262.32862854 428.19212341 C254.16358806 428.18907797 245.99880893 428.16850967 237.83386934 428.12715548 C233.51304277 428.10587629 229.19258728 428.0931986 224.87170792 428.10152626 C220.79869138 428.1090988 216.72642471 428.09311497 212.65354538 428.0596199 C211.16454019 428.05142496 209.67545989 428.05159122 208.1864624 428.06108284 C198.40248994 428.11724017 190.35593377 427.22195283 182.78695107 420.48595905 C176.03570955 413.79031655 174.59006796 405.20737578 174.55058289 395.97235107 C174.56136871 394.95167038 174.57215454 393.93098969 174.58326721 392.87937927 C174.58282913 391.77576553 174.58239105 390.67215179 174.5819397 389.53509521 C174.58401436 385.92066689 174.60728325 382.30671393 174.63087463 378.69236755 C174.63647528 376.17317457 174.64074316 373.65397831 174.64373779 371.13478088 C174.65398588 365.20286369 174.67758211 359.27109668 174.70778626 353.33925641 C174.74144912 346.57980572 174.75784598 339.82034653 174.77287257 333.06083274 C174.80413562 319.16968918 174.85682138 305.27869386 174.92384338 291.38768005 C165.77780807 291.12280979 156.63603212 290.9524952 147.48631096 290.89802456 C143.2356937 290.86985012 138.99044762 290.81092269 134.74171448 290.67796326 C115.10704377 289.16789305 115.10704377 289.16789305 97.69068909 296.03050232 C94.55345064 299.45624564 92.21443084 303.13115951 90.09078979 307.24963379 C88.24368551 310.63384611 85.81364211 313.49253211 83.36134338 316.45018005 C82.47126962 317.58427368 81.58414382 318.72069288 80.70118713 319.8603363 C77.65900453 323.74385713 74.54331394 327.56615722 71.42384338 331.38768005 C67.37402038 336.35000536 63.36590312 341.33930497 59.42384338 346.38768005 C53.83458558 353.54292039 48.12711476 360.60116196 42.37013245 367.62205505 C41.40906922 368.79531792 40.45264316 369.97239523 39.50099182 371.15330505 C36.14583912 375.27668219 36.14583912 375.27668219 33.92384338 376.38768005 C29.27598958 376.80082261 26.67944187 376.17755321 22.92384338 373.38768005 C21.39874849 370.33749027 21.79408395 367.16218392 21.81031799 363.81687927 C21.81017197 363.03630157 21.81002594 362.25572388 21.80987549 361.45149231 C21.81057352 358.86508936 21.81836081 356.27875796 21.82618713 353.69236755 C21.8280517 351.90160664 21.82947542 350.11084522 21.83047485 348.32008362 C21.83429698 343.60183815 21.84412467 338.88362335 21.85517883 334.16539001 C21.8653995 329.35277217 21.86997388 324.54014937 21.87501526 319.7275238 C21.8857472 310.28089573 21.90281998 300.83429044 21.92384338 291.38768005 C21.12800842 291.4033905 20.33217346 291.41910095 19.51222229 291.43528748 C15.85783682 291.49818431 12.20356578 291.5368438 8.54884338 291.57518005 C6.67132385 291.61288513 6.67132385 291.61288513 4.75587463 291.65135193 C-4.81346751 291.72650383 -13.75298727 290.97236732 -21.54100037 284.9150238 C-25.35029051 281.12511936 -28.85115078 275.8676321 -29.20495778 270.39563447 C-29.20674635 269.6295185 -29.20853492 268.86340253 -29.21037769 268.07407093 C-29.21483554 267.1882489 -29.21929338 266.30242687 -29.22388631 265.38976175 C-29.22370195 264.41565636 -29.22351759 263.44155098 -29.22332764 262.43792725 C-29.22700432 261.4037862 -29.23068101 260.36964515 -29.23446912 259.3041665 C-29.24552513 255.82198962 -29.24935305 252.33984257 -29.25315857 248.85765076 C-29.25942176 246.36775619 -29.26606843 243.87786257 -29.27307129 241.38796997 C-29.29231227 233.90376394 -29.30290155 226.41956584 -29.31179908 218.93534234 C-29.3161828 215.41033625 -29.32154941 211.88533167 -29.32678795 208.36032677 C-29.3438001 196.64132785 -29.35829397 184.92232987 -29.36553669 173.2033205 C-29.36744657 170.16231599 -29.3693669 167.12131149 -29.37132263 164.08030701 C-29.37180637 163.32448584 -29.37229011 162.56866468 -29.37278851 161.78993984 C-29.38108768 149.54788717 -29.4064227 137.30593225 -29.43890331 125.06392226 C-29.47198309 112.49352875 -29.48998629 99.92318489 -29.49318093 87.35274762 C-29.49534522 80.29563313 -29.50408187 73.23866117 -29.52964211 66.18158913 C-29.55363398 59.54221549 -29.55716899 52.90305215 -29.54688072 46.26362801 C-29.54638446 43.82717791 -29.55273123 41.39071533 -29.56643677 38.95430374 C-29.58410775 35.62667783 -29.5770722 32.2999774 -29.56390381 28.97235107 C-29.57487305 28.0093993 -29.5858423 27.04644752 -29.59714395 26.05431539 C-29.52875835 18.89082627 -27.72549978 13.87690823 -23.40037537 8.1806488 C-22.86025818 7.65084412 -22.32014099 7.12103943 -21.76365662 6.57518005 C-21.2312738 6.03248474 -20.69889099 5.48978943 -20.15037537 4.9306488 C-13.71696033 0.14496342 -7.7597629 -0.0453398 0 0 Z M-9.69766426 19.80608845 C-11.85626505 23.84863946 -11.62683199 27.66489433 -11.58409119 32.18089294 C-11.59033115 33.18604226 -11.59657111 34.19119158 -11.60300016 35.22679996 C-11.61899272 38.60488194 -11.60630104 41.9822486 -11.59373474 45.3603363 C-11.59915305 47.77805504 -11.60627407 50.19577047 -11.61497498 52.61347961 C-11.63134688 58.50453978 -11.62891481 64.39541324 -11.61732441 70.28646827 C-11.60829517 75.07373207 -11.60706387 79.86093874 -11.61141968 84.64820862 C-11.61203261 85.32925063 -11.61264554 86.01029265 -11.61327705 86.7119723 C-11.61455593 88.09544525 -11.61585279 89.47891819 -11.61716741 90.86239111 C-11.62857682 103.83883247 -11.6154539 116.81516083 -11.59396595 129.79158366 C-11.5760946 140.92881561 -11.5791986 152.0658808 -11.59764099 163.20310974 C-11.61904138 176.13273458 -11.62747815 189.06226037 -11.61519194 201.99190044 C-11.61391772 203.37031744 -11.61266024 204.74873446 -11.61141968 206.12715149 C-11.61080258 206.80537982 -11.61018547 207.48360814 -11.60954967 208.18238884 C-11.60609426 212.96455801 -11.6119292 217.74666441 -11.62133789 222.52882385 C-11.6337201 228.96386158 -11.62491932 235.39865811 -11.60176086 241.83366776 C-11.59645946 244.19921977 -11.59801184 246.56479823 -11.60681152 248.93033981 C-11.6176937 252.15207768 -11.60409131 255.37279487 -11.58409119 258.59446716 C-11.59301407 259.5372606 -11.60193696 260.48005404 -11.61113024 261.45141697 C-11.5876833 266.54238665 -11.5876833 266.54238665 -9.23191071 270.93725586 C-4.84496807 273.8888577 -0.44603527 273.55375574 4.64259338 273.59861755 C6.39650914 273.62667508 8.15041528 273.65533946 9.90431213 273.68455505 C12.66944725 273.72589183 15.43440052 273.76278033 18.19972229 273.78904724 C20.86855579 273.81659526 23.53657276 273.862452 26.20509338 273.91111755 C27.03327576 273.91437042 27.86145813 273.91762329 28.71473694 273.92097473 C34.51374875 274.04559424 34.51374875 274.04559424 36.60340881 275.78871155 C39.18348113 278.91302718 39.07181325 281.23244478 39.12916565 285.21434021 C39.15908348 287.04601242 39.15908348 287.04601242 39.18960571 288.91468811 C39.20658994 290.25203829 39.22346876 291.58938981 39.24024963 292.92674255 C39.26081941 294.29152558 39.28181589 295.65630223 39.30322266 297.02107239 C39.35844098 300.61475978 39.40785125 304.20850465 39.45606995 307.80229187 C39.50628675 311.46882752 39.56197187 315.13527961 39.61720276 318.80174255 C39.72478138 325.99698432 39.82622696 333.19229551 39.92384338 340.38768005 C42.77798847 337.57621094 45.54457864 334.76904261 48.08790588 331.6728363 C48.64679504 330.99406433 49.2056842 330.31529236 49.7815094 329.61595154 C50.36472961 328.90124695 50.94794983 328.18654236 51.54884338 327.45018005 C52.16493469 326.69873718 52.781026 325.94729431 53.41578674 325.17308044 C57.60996506 320.04119478 61.73341929 314.85832833 65.80690002 309.63035583 C69.84070175 304.46184001 73.9827362 299.38514438 78.1342926 294.3110199 C82.55278117 288.89176823 86.80406308 283.36087309 90.99806213 277.7665863 C92.92384338 275.38768005 92.92384338 275.38768005 94.92384338 274.38768005 C97.45556728 274.26546776 99.96162859 274.20203561 102.49464417 274.18235779 C103.27522186 274.17245819 104.05579956 274.16255859 104.86003113 274.15235901 C107.44637494 274.12071028 110.03273713 274.09597329 112.61915588 274.0712738 C114.40992212 274.05070719 116.20068347 274.02971079 117.99143982 274.00830078 C122.70963081 273.95304992 127.42786584 273.90365395 132.14613342 273.85545349 C136.95879545 273.80526046 141.77139338 273.74956293 146.58399963 273.69432068 C156.03055948 273.58670225 165.47717494 273.48526547 174.92384338 273.38768005 C174.92742591 272.52021873 174.92742591 272.52021873 174.93108082 271.63523293 C174.9903576 257.5282182 175.06598808 243.42136917 175.1595583 229.31453896 C175.20441969 222.49241817 175.24385623 215.67034845 175.27027893 208.84812927 C175.29580908 202.26037151 175.33677843 195.67282449 175.38702965 189.08520126 C175.40367315 186.57593507 175.41520305 184.06662942 175.42145729 181.55731583 C175.43112543 178.03389486 175.45921862 174.51105462 175.49147034 170.98777771 C175.49003525 169.95774628 175.48860016 168.92771484 175.48712158 167.86647034 C175.60201721 158.95056998 176.85932718 150.54981723 183.17384338 143.85643005 C188.77667218 139.15405588 195.02449849 137.27993424 202.23121643 137.18235779 C204.18289986 137.15243996 204.18289986 137.15243996 206.17401123 137.12191772 C207.59452698 137.1049346 209.01504399 137.08805575 210.43556213 137.0712738 C211.88859644 137.05069868 213.34162484 137.02970206 214.79464722 137.00830078 C218.61683868 136.95313772 222.43908364 136.90370307 226.2613678 136.85545349 C230.1625799 136.80519633 234.06371443 136.74953228 237.96485901 136.69432068 C245.61778808 136.58680964 253.27078171 136.48534907 260.92384338 136.38768005 C260.99398146 122.01873806 261.04665546 107.64982269 261.0792799 93.28074455 C261.09493776 86.60863958 261.11617852 79.93667193 261.15016174 73.26463318 C261.18275039 66.82612604 261.20069551 60.38772952 261.20847511 53.94914627 C261.21401946 51.49234908 261.22484612 49.03555795 261.24103355 46.57880783 C261.26280071 43.13850048 261.26581053 39.69865063 261.26441956 36.25828552 C261.27520538 35.2419252 261.28599121 34.22556488 261.29710388 33.17840576 C261.27375905 27.84475328 261.00323871 23.96360039 257.92384338 19.38768005 C255.5778831 18.21469991 254.19648488 18.25933456 251.58155251 18.25345898 C250.66390417 18.24900113 249.74625583 18.24454329 248.80079997 18.23995036 C247.27865211 18.2402269 247.27865211 18.2402269 245.72575378 18.24050903 C244.65289293 18.23683235 243.58003207 18.23315566 242.47466028 18.22936755 C238.85566578 18.21829565 235.23669996 18.21448097 231.61769104 18.2106781 C229.03278511 18.20441621 226.4478801 18.19776966 223.86297607 18.19076538 C216.08916449 18.1709925 208.31535158 18.16093434 200.54152113 18.15203759 C196.88300495 18.14765659 193.22449022 18.14228934 189.56597519 18.13704872 C177.40865441 18.12003665 165.25133454 18.1055412 153.09400368 18.09829998 C149.93832523 18.09639001 146.7826468 18.09446969 143.62696838 18.09251404 C142.84261694 18.0920303 142.0582655 18.09154656 141.25014584 18.09104816 C128.53650598 18.08274306 115.82296006 18.05739799 103.10936125 18.02493336 C90.06441356 17.99189341 77.01951367 17.97385406 63.9745239 17.97065574 C56.64701028 17.96848794 49.31963371 17.95969986 41.9921608 17.93419456 C35.10245688 17.91026873 28.21300381 17.90664257 21.32326698 17.91695595 C18.78999703 17.91745369 16.25671529 17.91106376 13.72348213 17.8973999 C10.27398722 17.87983001 6.82539415 17.88671406 3.37590027 17.89993286 C2.36559647 17.88896362 1.35529268 17.87799437 0.31437361 17.86669272 C-3.54844397 17.90260964 -6.27002058 17.95150733 -9.69766426 19.80608845 Z M193.92384338 158.38768005 C193.01404725 161.11706845 192.79721799 162.70091432 192.79241562 165.5066433 C192.78857447 166.34903128 192.78473333 167.19141927 192.78077579 168.05933416 C192.78164227 168.98490358 192.78250875 169.91047299 192.78340149 170.86408997 C192.78043037 171.84726153 192.77745924 172.83043309 192.77439809 173.84339774 C192.76569474 177.15292614 192.76420146 180.46241844 192.76271057 183.7719574 C192.75808361 186.13864215 192.75305911 188.50532615 192.74766541 190.87200928 C192.73452888 197.31204329 192.72805762 203.75207038 192.72365475 210.19211531 C192.72089251 214.21257249 192.71665522 218.23302726 192.71215057 222.25348282 C192.69995856 233.38315619 192.68965874 244.51282764 192.68627548 255.64250755 C192.68605592 256.35483869 192.68583635 257.06716983 192.68561013 257.80108676 C192.68539185 258.51512763 192.68517357 259.2291685 192.68494868 259.96484697 C192.68450522 261.41178091 192.68405865 262.85871486 192.68360901 264.3056488 C192.68338758 265.02337891 192.68316615 265.74110901 192.68293801 266.48058851 C192.67898896 278.11356325 192.66153138 289.74647538 192.63824949 301.37942593 C192.61454384 313.32038859 192.60207401 325.26131982 192.60090756 337.20230639 C192.59999042 343.90774166 192.59422815 350.61309534 192.57608795 357.31850815 C192.55965521 363.62381054 192.55742843 369.92895779 192.56622696 376.23427391 C192.56699987 378.55103787 192.56262135 380.86781001 192.55276871 383.18455315 C192.54012478 386.34232312 192.54588501 389.49953733 192.55635071 392.65730286 C192.5482943 393.57841083 192.5402379 394.4995188 192.53193736 395.44853914 C192.56916107 400.23635323 192.74723533 403.53870172 195.92384338 407.38768005 C199.4993811 409.77137187 201.03546728 409.63602669 205.28048706 409.63250732 C205.92810177 409.6347719 206.57571647 409.63703647 207.24295586 409.63936967 C209.41703912 409.64467452 211.59083865 409.63582745 213.76490784 409.62718201 C215.32209871 409.62829467 216.87928915 409.63035214 218.43647766 409.63328552 C221.79227339 409.63801199 225.14799919 409.63688314 228.50379372 409.63150978 C233.81111331 409.62391049 239.11829768 409.63454399 244.42559814 409.64871216 C259.51836149 409.68648085 274.61106422 409.70464261 289.70387268 409.69309998 C298.03770005 409.68688341 306.37130973 409.69846598 314.70508355 409.7295453 C319.97977251 409.74820584 325.25384524 409.74487503 330.52852404 409.72537768 C333.8132309 409.71849261 337.09760414 409.73245974 340.38224792 409.75232697 C341.90359304 409.75737161 343.42499433 409.75389598 344.94629478 409.74119377 C357.87823957 409.64090867 357.87823957 409.64090867 361.71722412 412.74014282 C362.44540848 413.61383011 363.17359283 414.4875174 363.92384338 415.38768005 C364.76044495 416.37381287 365.59704651 417.35994568 366.45899963 418.3759613 C367.30756179 419.47935895 368.14974592 420.58768342 368.98634338 421.70018005 C369.94464341 422.94730107 370.9043366 424.19335251 371.86524963 425.4384613 C372.36298889 426.08508728 372.86072815 426.73171326 373.37355042 427.39793396 C376.0025217 430.77212546 378.71519298 434.07737474 381.42384338 437.38768005 C385.47430213 442.34947714 389.48173917 447.33936208 393.42384338 452.38768005 C397.55913741 457.68048821 401.75398436 462.92214028 405.98634338 468.13768005 C406.54708557 468.82990662 407.10782776 469.52213318 407.68556213 470.2353363 C408.20892151 470.87857849 408.73228088 471.52182068 409.27149963 472.18455505 C409.7356427 472.75528748 410.19978577 473.3260199 410.67799377 473.91404724 C412.00077395 475.52025561 412.00077395 475.52025561 413.92384338 477.38768005 C413.92970963 476.63457047 413.93557587 475.88146088 413.94161987 475.10552979 C413.99958731 467.99897703 414.07168696 460.89273981 414.1595583 453.78650379 C414.20423557 450.13332143 414.24349716 446.4802499 414.27027893 442.82688904 C414.29633884 439.29941826 414.3367593 435.77237459 414.38702965 432.24516869 C414.41176915 430.24840327 414.42173637 428.2514725 414.43148804 426.25457764 C414.46117928 424.42324532 414.46117928 424.42324532 414.49147034 422.55491638 C414.50257339 421.48236099 414.51367645 420.4098056 414.52511597 419.30474854 C414.97931385 415.98186107 415.9499128 414.07691897 417.92384338 411.38768005 C421.26297758 409.71811296 425.02122288 410.25149836 428.69337463 410.24705505 C430.48700711 410.22872598 432.28062726 410.20915557 434.07423401 410.1884613 C436.90525581 410.15949568 439.73548605 410.1376802 442.56666565 410.13719177 C445.29711833 410.13385468 448.02574011 410.09928938 450.75587463 410.05955505 C452.02018059 410.07015961 452.02018059 410.07015961 453.31002808 410.08097839 C454.10402512 410.06456299 454.89802216 410.04814758 455.71607971 410.03123474 C456.75627007 410.0257663 456.75627007 410.0257663 457.81747437 410.02018738 C461.29695191 408.97535857 462.69564346 407.23651768 464.92384338 404.38768005 C465.65971286 401.09788038 465.59023596 397.87189614 465.54530334 394.51217651 C465.55169217 393.51025632 465.55808099 392.50833614 465.56466341 391.47605473 C465.57993863 388.11473003 465.5594344 384.75457918 465.53907776 381.39329529 C465.54257815 378.98528146 465.54823579 376.57726994 465.55589294 374.16926575 C465.56867912 368.30569033 465.55818878 362.4424299 465.5367797 356.57890516 C465.51276628 349.751498 465.51448424 342.92417014 465.51708561 336.09673012 C465.52077553 323.9160536 465.49995177 311.73554027 465.46583557 299.55491638 C465.43273705 287.73325985 465.41857852 275.91177457 465.42481995 264.09007263 C465.43158253 251.21793977 465.42912806 238.34587864 465.40946054 225.47375637 C465.40842106 224.79323377 465.40738157 224.11271116 465.40631059 223.41156666 C465.40421969 222.04475132 465.40210871 220.67793601 465.39997742 219.31112073 C465.39307962 214.55099946 465.39241286 209.79090029 465.39385986 205.03077507 C465.39544908 198.6261113 465.38056662 192.22160979 465.35463333 185.81699753 C465.3474549 183.46273736 465.34539592 181.10845536 465.34875107 178.75418663 C465.35244962 175.54796621 465.33777453 172.3423507 465.31825256 169.13619995 C465.32624445 167.7288694 465.32624445 167.7288694 465.33439779 166.29310793 C465.29838639 161.37438278 465.29838639 161.37438278 463.58669281 156.84089756 C460.76532755 154.37521587 458.09152318 154.26161339 454.5081501 154.25345898 C453.5995776 154.24900113 452.6910051 154.24454329 451.7549001 154.23995036 C450.25565395 154.2402269 450.25565395 154.2402269 448.72612 154.24050903 C447.13498141 154.234994 447.13498141 154.234994 445.5116986 154.22936755 C441.93960271 154.21831066 438.36753588 154.21448351 434.79542542 154.2106781 C432.24155077 154.2044151 429.68767704 154.19776844 427.13380432 154.19076538 C419.45829004 154.17152578 411.78278085 154.16093652 404.1072486 154.15203759 C400.49369236 154.14765469 396.88013758 154.14228797 393.26658249 154.13704872 C381.256771 154.12003875 369.24696043 154.10554336 357.23713875 154.09829998 C354.12082544 154.09639006 351.00451213 154.09446973 347.88819885 154.09251404 C347.11364707 154.0920303 346.33909528 154.09154656 345.54107223 154.09104816 C332.98660084 154.08274323 320.43222458 154.05739752 307.87779476 154.02493336 C294.99214231 153.99188389 282.10653826 153.97385323 269.2208432 153.97065574 C261.98441471 153.96848892 254.74812505 153.9597151 247.51173782 153.93419456 C240.70736917 153.91025306 233.90329395 153.90664851 227.09887695 153.91695595 C224.59827723 153.91745332 222.09766551 153.91107404 219.59710312 153.8973999 C216.18960964 153.8798052 212.78302686 153.88672648 209.37553406 153.89993286 C207.88298007 153.88347899 207.88298007 153.88347899 206.36027348 153.86669272 C200.99292212 153.91709464 197.69213918 154.13041083 193.92384338 158.38768005 Z " fill="#000000" transform="translate(29.076156616210938,-0.3876800537109375)"/>
<path d="M0 0 C56.43 0 112.86 0 171 0 C171 5.94 171 11.88 171 18 C114.57 18 58.14 18 0 18 C0 12.06 0 6.12 0 0 Z " fill="#000000" transform="translate(273,349)"/>
<path d="M0 0 C56.43 0 112.86 0 171 0 C171 5.94 171 11.88 171 18 C114.57 18 58.14 18 0 18 C0 12.06 0 6.12 0 0 Z " fill="#000000" transform="translate(273,298)"/>
<path d="M0 0 C56.43 0 112.86 0 171 0 C171 5.94 171 11.88 171 18 C114.57 18 58.14 18 0 18 C0 12.06 0 6.12 0 0 Z " fill="#000000" transform="translate(68,59)"/>
<path d="M0 0 C39.6 0 79.2 0 120 0 C120 5.94 120 11.88 120 18 C80.4 18 40.8 18 0 18 C0 12.06 0 6.12 0 0 Z " fill="#000000" transform="translate(68,213)"/>
<path d="M0 0 C39.6 0 79.2 0 120 0 C120 5.94 120 11.88 120 18 C80.4 18 40.8 18 0 18 C0 12.06 0 6.12 0 0 Z " fill="#000000" transform="translate(68,162)"/>
<path d="M0 0 C33.99 0 67.98 0 103 0 C103 5.94 103 11.88 103 18 C69.01 18 35.02 18 0 18 C0 12.06 0 6.12 0 0 Z " fill="#000000" transform="translate(273,247)"/>
<path d="M0 0 C33.99 0 67.98 0 103 0 C103 5.94 103 11.88 103 18 C69.01 18 35.02 18 0 18 C0 12.06 0 6.12 0 0 Z " fill="#000000" transform="translate(341,196)"/>
<path d="M0 0 C22.77 0 45.54 0 69 0 C69 5.94 69 11.88 69 18 C46.23 18 23.46 18 0 18 C0 12.06 0 6.12 0 0 Z " fill="#000000" transform="translate(136,110)"/>
<path d="M0 0 C5.94 0 11.88 0 18 0 C18 5.94 18 11.88 18 18 C12.06 18 6.12 18 0 18 C0 12.06 0 6.12 0 0 Z " fill="#000000" transform="translate(426,247)"/>
<path d="M0 0 C5.94 0 11.88 0 18 0 C18 5.94 18 11.88 18 18 C12.06 18 6.12 18 0 18 C0 12.06 0 6.12 0 0 Z " fill="#000000" transform="translate(392,247)"/>
<path d="M0 0 C5.94 0 11.88 0 18 0 C18 5.94 18 11.88 18 18 C12.06 18 6.12 18 0 18 C0 12.06 0 6.12 0 0 Z " fill="#000000" transform="translate(307,196)"/>
<path d="M0 0 C5.94 0 11.88 0 18 0 C18 5.94 18 11.88 18 18 C12.06 18 6.12 18 0 18 C0 12.06 0 6.12 0 0 Z " fill="#000000" transform="translate(273,196)"/>
<path d="M0 0 C5.94 0 11.88 0 18 0 C18 5.94 18 11.88 18 18 C12.06 18 6.12 18 0 18 C0 12.06 0 6.12 0 0 Z " fill="#000000" transform="translate(102,110)"/>
<path d="M0 0 C5.94 0 11.88 0 18 0 C18 5.94 18 11.88 18 18 C12.06 18 6.12 18 0 18 C0 12.06 0 6.12 0 0 Z " fill="#000000" transform="translate(68,110)"/>
</svg>
