<?xml version="1.0" encoding="UTF-8"?>
<svg version="1.1" xmlns="http://www.w3.org/2000/svg" width="512" height="512">
<path d="M0 0 C0.72382874 0.00087616 1.44765747 0.00175232 2.19342041 0.00265503 C33.55106427 0.12738814 62.9999218 9.98350745 87.0625 30.375 C88.06796875 31.21675781 89.0734375 32.05851562 90.109375 32.92578125 C113.61657556 53.18263156 127.49491701 81.39701656 130.75 112.125 C130.86982926 113.87399732 130.97468906 115.62410311 131.0625 117.375 C131.14177734 118.55449219 131.14177734 118.55449219 131.22265625 119.7578125 C132.32893204 150.44494104 120.01157909 180.15351199 99.625 202.625 C97.79838277 204.57196583 95.93762236 206.47339286 94.0625 208.375 C93.21171875 209.23867187 92.3609375 210.10234375 91.484375 210.9921875 C71.18452639 230.50192224 43.12310321 241.66430972 15.421875 244.78515625 C8.13629959 245.64179354 3.92055142 246.78389223 -0.9375 252.375 C-1.73994141 253.27605469 -1.73994141 253.27605469 -2.55859375 254.1953125 C-3.71761518 255.51761408 -4.86963329 256.84607768 -6.015625 258.1796875 C-14.96697701 268.40460585 -29.64758115 283.83624922 -44.125 284.9375 C-47.9375 284.375 -47.9375 284.375 -50.9375 282.5625 C-54.66823127 276.61664705 -53.14389342 270.25755898 -52.4375 263.52734375 C-52.34670166 262.65988525 -52.25590332 261.79242676 -52.16235352 260.89868164 C-51.97493942 259.17119179 -51.77546687 257.44495494 -51.56225586 255.72045898 C-50.74966436 248.6522359 -50.09916535 242.27166563 -54.02734375 236.08203125 C-57.31719054 233.02181135 -60.52688933 231.0903529 -64.5 229.0625 C-94.95710195 212.69624371 -115.79346847 186.10381192 -125.89453125 153.421875 C-128.62462643 143.29644499 -129.27559617 133.59895366 -129.25 123.125 C-129.26611328 121.82175781 -129.28222656 120.51851563 -129.29882812 119.17578125 C-129.31425003 88.05437455 -115.54214378 59.56256426 -94.12890625 37.47265625 C-69.12439224 12.65387679 -34.91592101 -0.10360362 0 0 Z " fill="#000000" transform="translate(128.9375,-0.37499999999999994)"/>
<path d="M0 0 C0.68255859 0.1556543 1.36511719 0.31130859 2.06835938 0.47167969 C25.08528796 5.90593097 45.02344168 17.74646376 62 34 C62.74636719 34.68320313 63.49273437 35.36640625 64.26171875 36.0703125 C84.49222768 55.20632618 97.47558557 83.77788017 98.43359375 111.578125 C98.45693053 114.13531052 98.45781068 116.69278866 98.4375 119.25 C98.43293793 120.2563147 98.43293793 120.2563147 98.42828369 121.28295898 C98.20537816 154.70095627 84.37914135 183.2541467 60.80810547 206.61181641 C51.67241237 215.39112838 41.56271397 222.06246393 30.32836914 227.87060547 C26.22264563 230.04889825 23.3249478 231.93417665 21 236 C19.37412313 242.44708142 20.169948 248.92045914 20.9375 255.4375 C23.04584635 273.95014116 23.04584635 273.95014116 20.4375 279.0625 C18.04290758 280.96589398 16.26148303 282.09873893 13.16796875 282.31640625 C-2.65145946 280.00762483 -19.91555056 262.77313182 -29.4375 250.5 C-30.01371094 249.7059375 -30.58992187 248.911875 -31.18359375 248.09375 C-34.61052249 244.14356977 -38.29044967 242.67428183 -43.39453125 242.0078125 C-44.93959351 241.79064575 -44.93959351 241.79064575 -46.51586914 241.5690918 C-48.14770142 241.34926636 -48.14770142 241.34926636 -49.8125 241.125 C-84.43662794 235.98619965 -114.73589172 219.35813626 -137 192 C-149.29510127 175.41048604 -158.5816228 155.6327371 -161 135 C-161.15339844 134.04867187 -161.30679688 133.09734375 -161.46484375 132.1171875 C-162.08523316 125.6073479 -160.73426063 121.81008268 -156.625 116.8125 C-155.70521011 115.72069402 -154.78461214 114.62956839 -153.86328125 113.5390625 C-138.83780149 95.56151189 -129.02367595 69.9942075 -127.1328125 46.83666992 C-125.90352902 32.41703495 -125.90352902 32.41703495 -119.75 27.125 C-118.11189861 26.04735347 -116.47041392 24.96980015 -114.76513672 24.00195312 C-112.94839285 22.97070598 -111.21632379 21.85309126 -109.47265625 20.703125 C-77.11659187 -0.18441522 -37.83086261 -8.94673007 0 0 Z " fill="#000000" transform="translate(414,95)"/>
<path d="M0 0 C0.32871094 1.21171875 0.65742188 2.4234375 0.99609375 3.671875 C6.06206388 21.7534354 12.94682937 38.72726791 24 54 C24.40412109 54.56348145 24.80824219 55.12696289 25.22460938 55.70751953 C52.4950071 93.24131113 92.07372209 112.95208931 137 121 C133.74983047 152.71717159 116.35183053 180.22446235 92.2421875 200.4765625 C72.4637306 216.2812655 48.34922589 225.17198094 23.40234375 228.4765625 C22.25894531 228.62867188 21.11554688 228.78078125 19.9375 228.9375 C18.93589844 229.04964844 17.93429688 229.16179687 16.90234375 229.27734375 C10.23630221 230.93712529 6.52772819 235.43906858 2.4375 240.5625 C-6.93169529 251.82345317 -20.18000472 264.88684631 -34.7734375 268.73046875 C-38.54399333 268.96221388 -40.87087022 268.07905905 -44.0625 266.125 C-48.43791425 259.06788024 -45.71975377 249.57995372 -44.71264648 241.68481445 C-43.14681827 230.36433682 -43.14681827 230.36433682 -47 220 C-50.89286613 216.52779157 -55.1238347 214.19085477 -59.6875 211.75 C-66.36703084 208.07769726 -72.26872803 204.05642936 -78 199 C-79.22589844 197.95392578 -79.22589844 197.95392578 -80.4765625 196.88671875 C-100.65416208 179.30159713 -113.83714962 157.98649268 -120 132 C-120.18691406 131.22744873 -120.37382813 130.45489746 -120.56640625 129.65893555 C-122.25963561 121.70453707 -122.37228796 113.76350937 -122.37060547 105.66821289 C-122.37496102 103.3333943 -122.41134763 101.0004997 -122.44921875 98.66601562 C-122.5448347 85.757351 -121.39123648 69.4338401 -113 59 C-109.99759398 56.58858482 -106.85470275 54.48782716 -103.6171875 52.4140625 C-99.72553043 49.89094679 -96.20562952 47.01553959 -92.6875 44 C-92.13779541 43.53803223 -91.58809082 43.07606445 -91.02172852 42.60009766 C-88.51824837 40.43716856 -86.28409256 38.37027436 -84.26245117 35.73535156 C-78.73938554 28.60274814 -73.66106263 27.1878967 -64.9375 25.75 C-62.51195683 25.2802 -60.08745744 24.80497718 -57.6640625 24.32421875 C-56.5080957 24.10169434 -55.35212891 23.87916992 -54.16113281 23.64990234 C-47.88680339 22.35995294 -41.9617164 20.3394077 -36 18 C-35.36626465 17.75169434 -34.7325293 17.50338867 -34.07958984 17.24755859 C-24.9175961 13.60016152 -8.87615263 0 0 0 Z " fill="#000000" transform="translate(226,244)"/>
</svg>
