<?xml version="1.0" encoding="UTF-8"?>
<svg version="1.1" xmlns="http://www.w3.org/2000/svg" width="512" height="512">
<path d="M0 0 C1.30096891 -0.00668677 1.30096891 -0.00668677 2.62822002 -0.01350862 C4.05071083 -0.01323207 4.05071083 -0.01323207 5.50193882 -0.01294994 C6.5129887 -0.01662663 7.52403858 -0.02030332 8.56572634 -0.02409142 C11.96402969 -0.03513134 15.36230247 -0.03897268 18.76062107 -0.04278088 C21.19329011 -0.04904542 23.62595819 -0.05569221 26.05862522 -0.0626936 C33.3674276 -0.08192401 40.67622744 -0.09252363 47.98504743 -0.10142139 C51.43070731 -0.10580813 54.87636567 -0.11117405 58.32202435 -0.11641026 C69.78370278 -0.13342332 81.24538027 -0.14791504 92.7070694 -0.155159 C95.68048637 -0.15706876 98.65390334 -0.15898911 101.62732029 -0.16094494 C102.73580684 -0.16167055 102.73580684 -0.16167055 103.86668707 -0.16241082 C115.82400566 -0.17070191 127.78122391 -0.19602284 139.73849874 -0.22852562 C152.027575 -0.26165656 164.3166004 -0.27961332 176.60572153 -0.28280324 C183.5003383 -0.2849631 190.39480888 -0.29363421 197.28938198 -0.31926441 C203.7810425 -0.34334152 210.27251191 -0.34675929 216.7642107 -0.33650303 C219.14050959 -0.33600866 221.5168216 -0.34229968 223.89308071 -0.35605907 C242.69935664 -0.45881676 257.9195761 0.96069421 272.40539646 14.38422108 C283.64316903 26.48436468 287.75914931 40.69543052 287.79583836 56.89610767 C287.80029504 58.00362817 287.80029504 58.00362817 287.80484176 59.13352281 C287.81344895 61.58453235 287.81503012 64.0354926 287.81652927 66.486516 C287.82116277 68.25296093 287.82618814 70.01940487 287.83157444 71.78584766 C287.84464122 76.56654855 287.85113109 81.34723544 287.8555851 86.12795138 C287.85852249 89.1157387 287.86262834 92.10352224 287.86708927 95.09130764 C287.88074336 104.443179 287.89042265 113.79504166 287.89429116 123.14692229 C287.89877987 133.93737383 287.91637413 144.7276992 287.94529176 155.51811236 C287.96688846 163.86648067 287.97699421 172.2148134 287.97833228 180.56320935 C287.97938089 185.54713129 287.98530187 190.53093427 288.00315189 195.51482677 C288.01959983 200.19753792 288.0218041 204.8800402 288.01301289 209.56276989 C288.012241 211.2812808 288.01660514 212.9998028 288.02647114 214.71828556 C288.03914695 217.06353563 288.03333833 219.40804081 288.02288914 221.75328541 C288.0243557 223.06566779 288.02582226 224.37805017 288.02733326 225.73020172 C287.63061071 229.3610639 286.85401206 231.25056251 284.65539646 234.13422108 C281.83869495 235.54257183 279.78222738 235.37150812 276.65539646 235.13422108 C269.84601613 231.96560342 263.86243382 226.84821824 257.97424412 222.24335194 C253.38286158 218.65920145 248.69634089 215.22257945 243.96789646 211.82172108 C243.21895115 211.28305408 242.47000584 210.74438709 241.69836521 210.18939686 C240.15286463 209.0791423 238.60696005 207.96944993 237.0606699 206.8602953 C232.90016051 203.87462727 228.74632176 200.87973184 224.59289646 197.88422108 C223.81277195 197.32307606 223.03264744 196.76193104 222.22888279 196.18378162 C221.15416721 195.40901478 221.15416721 195.40901478 220.05774021 194.61859608 C219.4234409 194.16194569 218.78914158 193.7052953 218.13562107 193.23480701 C216.65539646 192.13422108 216.65539646 192.13422108 215.65539646 191.13422108 C212.91838468 190.97411626 210.20372056 190.8747528 207.46399021 190.81781483 C206.23423214 190.78664318 206.23423214 190.78664318 204.97963047 190.7548418 C202.35080745 190.68925614 199.72188143 190.63041982 197.09289646 190.57172108 C195.31489085 190.52854441 193.53689581 190.4849304 191.75891209 190.4408617 C187.39118013 190.33356565 183.02334419 190.23232404 178.65539646 190.13422108 C178.98539646 190.79422108 179.31539646 191.45422108 179.65539646 192.13422108 C179.74852554 194.8195197 179.78117969 197.47866526 179.76892185 200.16400623 C179.76906788 200.99335178 179.76921391 201.82269733 179.76936436 202.67717457 C179.76866617 205.42590393 179.76087817 208.17456601 179.75305271 210.92328358 C179.7511882 212.82614575 179.74976445 214.7290084 179.74876499 216.63187122 C179.74494245 221.64603463 179.73511439 226.66016919 179.72406101 231.67432117 C179.71384125 236.78855467 179.70926616 241.90279282 179.70422459 247.01703358 C179.69349191 257.05610877 179.67641862 267.09516253 179.65539646 277.13422108 C180.33493507 277.1314557 181.01447369 277.12869032 181.71460438 277.12584114 C198.29236358 277.05942526 214.87008032 277.00986487 231.44794178 276.97878456 C239.46505879 276.96335269 247.48208668 276.94233406 255.49914646 276.90790272 C262.49140447 276.87788711 269.48359789 276.85861937 276.47591853 276.85195559 C280.17415446 276.8480638 283.87220571 276.83899554 287.57038212 276.81703091 C291.71110626 276.79264009 295.85151467 276.79225883 299.99231052 276.79364491 C301.807094 276.77746616 301.807094 276.77746616 303.65853977 276.76096058 C319.19386488 276.81696406 332.0056106 280.97633311 343.33508396 291.75531483 C353.0021991 301.66654903 358.81252895 312.83167059 358.79583836 326.80818653 C358.80029504 327.97395046 358.80029504 327.97395046 358.80484176 329.16326517 C358.81351917 331.7695615 358.81503617 334.37581184 358.81652927 336.98212147 C358.82115795 338.8497423 358.82618267 340.71736218 358.83157444 342.58498096 C358.84469151 347.65916351 358.85114149 352.73333284 358.8555851 357.80752969 C358.85851558 360.9755202 358.86262024 364.14350709 358.86708927 367.31149578 C358.88075937 377.21760226 358.89042969 387.12370047 358.89429116 397.02981573 C358.89877763 408.47687022 358.91635485 419.92380565 358.94529176 431.37082392 C358.96687182 440.21334361 358.97699339 449.0558297 358.97833228 457.89837545 C358.97938251 463.18298572 358.98533693 468.46748399 359.00315189 473.75206661 C359.01957018 478.71870337 359.02181864 483.68514316 359.01301289 488.65179729 C359.01223928 490.47757334 359.01662754 492.30335971 359.02647114 494.12910938 C359.03909342 496.61539069 359.03336757 499.10096393 359.02288914 501.58723927 C359.03094554 502.31505244 359.03900195 503.04286561 359.04730248 503.79273373 C359.01830889 506.72010716 358.99832368 508.65784102 357.25744343 511.07619858 C353.98847467 513.23508815 350.38329015 512.80325105 346.65539646 512.13422108 C343.83620266 510.78739113 341.59669335 508.9557584 339.21789646 506.94672108 C337.82102808 505.8340712 336.42252933 504.72346572 335.02258396 503.61468983 C334.30554295 503.03767323 333.58850193 502.46065662 332.8497324 501.86615467 C329.26943829 499.04031951 325.55635298 496.40605944 321.84289646 493.75922108 C314.52229729 488.50385696 307.25809209 483.17555756 300.02331638 477.80267811 C299.27799656 477.25079823 298.53267673 476.69891834 297.76477146 476.13031483 C297.1147617 475.64748035 296.46475193 475.16464588 295.7950449 474.66718006 C294.73591892 473.90836536 294.73591892 473.90836536 293.65539646 473.13422108 C292.79955747 472.45303022 291.94371847 471.77183937 291.06194496 471.07000637 C286.79072105 468.64286569 283.82453249 468.57342484 279.01097202 468.6286974 C277.72459641 468.61956222 277.72459641 468.61956222 276.41223341 468.61024249 C273.54501212 468.59465473 270.67862765 468.60742623 267.81140232 468.62006092 C265.75281341 468.6145994 263.69422856 468.60735757 261.63565159 468.59846973 C257.20437237 468.58313092 252.77332471 468.58033162 248.3420248 468.58723545 C241.32705114 468.59802655 234.31231897 468.58063218 227.29737949 468.55942249 C216.19244139 468.52915154 205.08757478 468.5174674 193.98259884 468.51384604 C174.121855 468.50720648 154.26116149 468.4780633 134.40047842 468.42874968 C127.43610171 468.41230622 120.47182896 468.40682463 113.50743473 468.41034007 C109.16051993 468.41077924 104.81364387 468.40318058 100.46674061 468.39366436 C98.46133869 468.39099699 96.45592877 468.39170684 94.45053005 468.39617443 C76.03464535 468.43434007 58.20900877 468.01325456 43.65539646 455.13422108 C42.97734959 454.53738514 42.29930271 453.9405492 41.60070896 453.32562733 C30.45695099 442.87572598 25.64393155 429.98820768 25.14318943 414.90497303 C25.11829441 413.50251331 25.11829441 413.50251331 25.09289646 412.07172108 C25.06598728 411.1670409 25.0390781 410.26236073 25.01135349 409.330266 C25.03772571 404.78956629 25.17820159 402.76068822 28.00305271 399.05218983 C30.65539646 397.13422108 30.65539646 397.13422108 33.65539646 396.50922108 C37.78900151 397.3703888 39.07673865 398.80470616 41.65539646 402.13422108 C42.30573633 405.17922896 42.25354598 408.15527502 42.21789646 411.25922108 C42.44224597 422.42246995 44.61837546 431.79968775 52.55774021 440.13031483 C62.24904014 449.41284288 72.56012932 451.33184715 85.61421299 451.20496082 C86.49362464 451.20072644 87.37303629 451.19649207 88.27909678 451.19212937 C90.19876099 451.18229672 92.11841425 451.17010779 94.03805065 451.15584469 C97.1632053 451.13265951 100.28834311 451.11551152 103.41354465 451.0999651 C106.78307387 451.0831925 110.15259714 451.06608099 113.52211535 451.04721403 C121.88512253 451.00096415 130.24800814 450.9757188 138.61113071 450.96313953 C139.82696317 450.961305 141.04279563 450.95947046 142.29547149 450.95758033 C147.31023052 450.95048694 152.32499008 450.94418271 157.33975089 450.93848276 C171.55008315 450.92168312 185.75961081 450.88397308 199.96960545 450.78119373 C211.26872499 450.6996008 222.56693055 450.66435037 233.86634463 450.68270802 C239.83794578 450.69071122 245.80746861 450.67601973 251.77869701 450.60509968 C257.40626207 450.5388164 263.03062598 450.53459918 268.65839863 450.57571316 C270.71015693 450.58011726 272.76211089 450.5627658 274.81344128 450.52063274 C289.8416113 450.23016492 298.48878641 453.78433804 309.87561548 463.61560774 C312.20193847 465.60056272 314.6551979 467.38022464 317.14758396 469.14984608 C318.60918018 470.22707789 320.0701588 471.30514839 321.53039646 472.38422108 C322.25484959 472.91789295 322.97930271 473.45156483 323.72570896 474.00140858 C328.14875565 477.2645654 332.55289571 480.55246172 336.94885349 483.85199451 C337.50001331 484.26553181 338.05117313 484.6790691 338.61903477 485.10513783 C339.96457075 486.11472285 341.30999517 487.12445657 342.65539646 488.13422108 C342.70220378 467.74083844 342.737428 447.34746677 342.75902081 426.95404148 C342.76931506 417.48413512 342.78333987 408.01426221 342.80627537 398.54437733 C342.82626606 390.28641462 342.83912634 382.02847616 342.84357345 373.77048993 C342.84617124 369.40160859 342.85223829 365.03279659 342.86685658 360.66393757 C342.88053039 356.54357991 342.88459949 352.42331951 342.88161182 348.30294132 C342.88215764 346.79862278 342.8860763 345.29430065 342.89380741 343.79000187 C342.9633957 329.53888589 342.58648258 315.52341341 332.59289646 304.38422108 C326.2141854 298.4551108 317.23552143 294.01797063 308.44296932 294.00279331 C307.18625111 293.99703159 307.18625111 293.99703159 305.90414464 293.99115348 C304.5311121 293.9924532 304.5311121 293.9924532 303.13034153 293.99377918 C302.15392692 293.99080806 301.17751231 293.98783694 300.17150939 293.98477578 C296.8905764 293.97608498 293.60967989 293.9745802 290.32873631 293.97308826 C287.97986873 293.96846031 285.63100191 293.96343568 283.28213596 293.9580431 C276.89347566 293.94491364 270.50482588 293.93847289 264.11615419 293.93403244 C260.12463171 293.93110217 256.13311211 293.92699741 252.14159107 293.92252827 C241.08394555 293.91033556 230.02630196 293.900037 218.96864986 293.89665318 C218.26107927 293.89643361 217.55350867 293.89621404 216.82449654 293.89598782 C215.76063576 293.89566041 215.76063576 293.89566041 214.67528284 293.89532638 C213.23815274 293.89488291 211.80102265 293.89443635 210.36389256 293.8939867 C209.65103012 293.89376527 208.93816769 293.89354384 208.20370336 293.8933157 C196.66146784 293.88937054 185.11929557 293.87192513 173.57708447 293.84862718 C161.7185569 293.82488462 149.86006102 293.81244997 138.00150931 293.81128526 C131.34679425 293.81037 124.69215196 293.80433524 118.03745747 293.78646564 C111.77480633 293.76997641 105.5123113 293.76783374 99.24964619 293.77660465 C96.95433223 293.7773746 94.65900985 293.77303788 92.36371708 293.7631464 C89.22307757 293.75040864 86.08298941 293.75631401 82.94235325 293.7667284 C81.5893972 293.75464379 81.5893972 293.75464379 80.20910871 293.74231505 C69.52636237 293.82480017 60.65911031 296.98996644 52.65539646 304.13422108 C43.94920745 313.88777118 42.21316722 324.01028566 42.31945896 336.74750233 C42.30695922 339.15310405 42.2939227 341.55870303 42.28039646 343.9642992 C42.27645235 347.72131379 42.28051765 351.4780614 42.2950449 355.23505116 C42.30359437 358.88543906 42.28198499 362.53471274 42.25695896 366.18500233 C42.27030277 367.30900944 42.28364658 368.43301655 42.29739475 369.59108448 C42.22360594 377.35864406 42.22360594 377.35864406 39.30529881 381.34198475 C36.65539646 383.13422108 36.65539646 383.13422108 33.65539646 383.75922108 C29.51721817 382.8971006 28.23058183 381.47361692 25.65539646 378.13422108 C24.9816926 375.04253402 25.0713304 372.0476808 25.16711521 368.89593983 C25.17772732 367.57478924 25.17772732 367.57478924 25.18855381 366.22694874 C25.21645798 363.42432823 25.27918704 360.62373373 25.34289646 357.82172108 C25.36798456 355.91745313 25.39079684 354.01315375 25.41125584 352.10883045 C25.46627143 347.44985123 25.55251495 342.79237919 25.65539646 338.13422108 C11.90201927 337.93948393 -1.8497269 337.82207762 -15.60452652 337.8000021 C-21.99359975 337.7873904 -28.38030473 337.74939624 -34.7686758 337.65082264 C-40.94870618 337.55644039 -47.12560538 337.53209151 -53.30627918 337.55375767 C-55.64921208 337.55015285 -57.9922513 337.5224477 -60.33457279 337.46880436 C-77.14248321 337.10598786 -86.96714853 340.18282875 -99.5383997 351.52561378 C-101.81724352 353.5551548 -104.23657167 355.34152488 -106.72350979 357.10687733 C-107.77997707 357.88744495 -107.77997707 357.88744495 -108.85778713 358.68378162 C-115.95746039 363.92522494 -123.07513278 369.14148653 -130.21960354 374.32172108 C-130.96282864 374.86256336 -131.70605373 375.40340565 -132.4718008 375.96063709 C-142.437585 383.16549758 -142.437585 383.16549758 -146.96960354 383.00922108 C-151.48615581 381.83826308 -151.48615581 381.83826308 -153.34460354 379.13422108 C-153.64139918 376.57101729 -153.7537528 374.24984523 -153.73228359 371.68576527 C-153.73766913 370.92058295 -153.74305467 370.15540064 -153.7486034 369.36703098 C-153.76294751 366.79463669 -153.75576328 364.22275236 -153.74865627 361.65033436 C-153.75435691 359.80893507 -153.76131998 357.96753932 -153.769454 356.12614918 C-153.78744588 351.11523253 -153.78620434 346.10449045 -153.78051162 341.09355116 C-153.77742484 336.90683505 -153.78350735 332.72015273 -153.78955036 328.53344142 C-153.80361715 318.64643329 -153.80201973 308.7595115 -153.79064846 298.87250233 C-153.77919748 288.69166735 -153.79318706 278.51109673 -153.82004493 268.33029664 C-153.8422575 259.58104195 -153.84882586 250.83186989 -153.84296852 242.08258903 C-153.83960709 236.86134357 -153.8419583 231.64026707 -153.85921955 226.41904545 C-153.87477241 221.4991006 -153.87064116 216.57954359 -153.85191441 211.65961361 C-153.8482498 209.86223324 -153.85127422 208.06482364 -153.86180019 206.26747036 C-153.95311117 189.37346483 -150.9853505 175.21596241 -139.09460354 162.38422108 C-124.97835666 149.27403189 -109.13547719 146.96022207 -90.65710354 147.03656483 C-89.35885647 147.03797977 -88.0606094 147.03939472 -86.72302151 147.04085255 C-83.29703702 147.04464283 -79.87109595 147.05444268 -76.44512844 147.06555653 C-72.93896986 147.07584628 -69.43280416 147.08036627 -65.92663479 147.08539295 C-59.06594004 147.09606861 -52.20527388 147.11310233 -45.34460354 147.13422108 C-45.67460354 146.14422108 -46.00460354 145.15422108 -46.34460354 144.13422108 C-46.45188677 141.08340955 -46.50188296 138.05511463 -46.50573635 135.00384998 C-46.51318371 133.6007407 -46.51318371 133.6007407 -46.52078152 132.16928577 C-46.53541457 129.06644425 -46.54220995 125.96365399 -46.54772854 122.86078358 C-46.55348265 120.69903023 -46.55924035 118.53727689 -46.56500149 116.37552357 C-46.57551719 111.83431225 -46.58135495 107.29311864 -46.58483791 102.75189686 C-46.59029898 96.96093803 -46.6142733 91.17021714 -46.64280987 85.37933254 C-46.66153639 80.9077638 -46.66664733 76.43625096 -46.66817379 71.96464634 C-46.67118243 69.83182327 -46.67914976 67.69900076 -46.69235897 65.56621647 C-46.80711315 45.59896382 -45.15419241 29.61042039 -30.76257229 14.42328358 C-22.49044572 6.59215891 -11.70831175 0.02800227 0 0 Z M-23.34460354 30.13422108 C-28.83032616 38.52264542 -30.65143486 46.82628977 -30.58752346 56.67792225 C-30.58942181 57.60886204 -30.59132015 58.53980183 -30.59327602 59.49895191 C-30.59696354 62.55845179 -30.58630997 65.61771126 -30.57507229 68.67718983 C-30.57387942 70.80994609 -30.57342755 72.94270289 -30.57368374 75.07545948 C-30.57212247 79.53640519 -30.56385855 83.99727025 -30.55041409 88.45819569 C-30.5333939 94.17810031 -30.52960086 99.89791665 -30.53035927 105.61784363 C-30.53008752 110.0178407 -30.52460596 114.41781845 -30.51735783 118.8178091 C-30.51417507 120.92735428 -30.51220467 123.03690164 -30.51146412 125.14644909 C-30.50929816 128.09057195 -30.50054916 131.03460081 -30.48986721 133.9787035 C-30.4903204 134.85099598 -30.49077358 135.72328846 -30.4912405 136.62201405 C-30.48697552 137.42515537 -30.48271053 138.2282967 -30.47831631 139.05577564 C-30.47664046 139.75093375 -30.47496462 140.44609186 -30.47323799 141.16231537 C-30.3368389 143.25324937 -29.91183152 145.12083323 -29.34460354 147.13422108 C-28.52775774 147.13660943 -27.71091194 147.13899778 -26.86931324 147.14145851 C-6.94432344 147.20073293 12.98054666 147.2763621 32.905406 147.36993599 C42.54113384 147.41479899 52.17682551 147.4542353 61.81262302 147.48065662 C70.21643496 147.50371388 78.62013149 147.53719745 87.02385175 147.58292264 C91.46879562 147.60675115 95.91362593 147.62554759 100.35863209 147.63183498 C104.55297294 147.63793316 108.74702363 147.65810113 112.94125652 147.68849659 C114.47050992 147.6972017 115.99980136 147.70101526 117.52907848 147.69922924 C134.18266811 147.68593532 148.32551466 150.30871538 161.96789646 160.38422108 C164.65539646 163.13422108 164.65539646 163.13422108 165.84387302 165.79364491 C167.73730127 169.52526114 169.29464758 171.5933896 172.65539646 174.13422108 C181.1648841 176.16753534 190.65238759 174.85253488 199.30456638 174.40594959 C214.85106142 173.69923656 224.13314194 175.21396626 235.96481419 185.65829945 C238.19373008 187.60420012 240.5663596 189.30791344 242.97961521 191.01703358 C244.43515304 192.09626632 245.88961685 193.17694937 247.34289646 194.25922108 C253.13085563 198.5437211 258.92952008 202.81090565 264.78039646 207.00922108 C265.65957737 207.64368153 265.65957737 207.64368153 266.55651951 208.29095936 C268.88853823 210.27911177 268.88853823 210.27911177 271.65539646 211.13422108 C271.70215858 190.16749146 271.73740595 169.20077047 271.75902081 148.23399925 C271.7693246 138.49832953 271.78336779 128.76269224 271.80627537 119.02704334 C271.82623669 110.53948076 271.83911942 102.05194167 271.84357345 93.56435627 C271.84617618 89.07205161 271.85227506 84.57981417 271.86685658 80.08753109 C271.88048383 75.85473717 271.88460874 71.62203783 271.88161182 67.38922405 C271.88215969 65.8401065 271.8861064 64.2909856 271.89380741 62.74188709 C271.95738177 49.28774867 270.99915982 37.2517266 261.54211521 26.79828358 C247.43193925 13.68727379 230.73943156 14.83816956 212.55383396 14.87543201 C210.32525614 14.87271838 208.09667922 14.86915537 205.86810398 14.8648119 C199.84338506 14.85572995 193.81873499 14.85921482 187.79401493 14.86557007 C181.47355566 14.87065182 175.15310207 14.86593258 168.83264256 14.86279774 C157.54209867 14.85893204 146.25158958 14.86512723 134.96105266 14.87531641 C124.74521954 14.88425064 114.52943189 14.8826982 104.31359959 14.87347889 C92.42103542 14.86275127 80.52849883 14.8588049 68.63592815 14.86470342 C62.35128914 14.86781316 56.06668138 14.86825986 49.78204441 14.86163044 C43.87223046 14.85583128 37.96250195 14.85990081 32.05269718 14.87141895 C29.89045192 14.87405181 27.7281994 14.87332408 25.56595707 14.86889362 C6.16142079 14.83281491 -9.49739604 14.88084277 -23.34460354 30.13422108 Z M-130.34460354 177.13422108 C-138.79273767 188.86073562 -138.64280462 202.15767585 -138.57165432 216.09222889 C-138.5710889 217.66048138 -138.57140932 219.2287344 -138.57253933 220.79698658 C-138.57310873 225.0172632 -138.56142187 229.23742409 -138.54739141 233.45767403 C-138.53481467 237.88189373 -138.53370812 242.30611663 -138.5313406 246.73035145 C-138.52514611 255.09168703 -138.50876302 263.45296977 -138.48864162 271.81428218 C-138.4662191 281.34036936 -138.45527327 290.86645917 -138.44525075 300.3925662 C-138.42439481 319.97314722 -138.38925868 339.55368081 -138.34460354 359.13422108 C-136.59240328 358.02851274 -134.84141803 356.92087884 -133.09094143 355.81244373 C-132.1157304 355.19583881 -131.14051937 354.57923389 -130.13575649 353.94394398 C-126.55440019 351.6218704 -123.16099389 349.11297023 -119.78210354 346.50922108 C-113.81501306 341.97452375 -107.79661576 337.52064529 -101.71960354 333.13422108 C-100.97380032 332.59458729 -100.22799709 332.0549535 -99.45959377 331.49896717 C-97.42734412 330.03449439 -95.39613133 328.5715911 -93.34460354 327.13422108 C-92.54159817 326.45542896 -91.7385928 325.77663685 -90.91125393 325.07727528 C-86.38665111 322.09503845 -81.44569742 322.56305027 -76.19860744 322.58832264 C-75.08582424 322.57798496 -73.97304104 322.56764729 -72.82653713 322.55699635 C-69.15793254 322.52755991 -65.48987947 322.52606893 -61.82116604 322.52484608 C-59.27382256 322.50986509 -56.72648881 322.49313812 -54.17916775 322.47473621 C-48.16570518 322.43550477 -42.15242904 322.41384927 -36.13887346 322.40076232 C-29.28991647 322.38487254 -22.44114323 322.34644872 -15.59229302 322.30616903 C-1.5097918 322.22384948 12.5727049 322.16970785 26.65539646 322.13422108 C26.85659595 321.30581211 27.05779545 320.47740314 27.2650919 319.62389088 C27.66482464 317.99741375 27.66482464 317.99741375 28.07263279 316.3380785 C28.33570728 315.26216953 28.59878178 314.18626057 28.86982822 313.0777483 C32.17127689 300.70720739 41.00838852 291.09299774 51.77649021 284.63812733 C60.94994535 279.8460239 69.52855369 277.99804459 79.76013279 277.92889881 C80.66794498 277.91899921 81.57575718 277.90909962 82.51107883 277.89890003 C85.50316886 277.86738473 88.49527474 277.84256707 91.48742771 277.81781483 C93.56536865 277.79723669 95.64330548 277.77623999 97.72123814 277.7548418 C103.18412032 277.69970994 108.64703973 277.65026151 114.10998631 277.60199451 C119.68700559 277.55171457 125.26397097 277.49606242 130.84094334 277.4408617 C141.77904831 277.33338882 152.71720013 277.23191977 163.65539646 277.13422108 C163.74840028 266.50241857 163.81931497 255.8707141 163.86264515 245.23858643 C163.8834498 240.30073756 163.91163618 235.36316864 163.95715427 230.42548084 C164.00086752 225.65328532 164.02458703 220.88135773 164.03490543 216.10897732 C164.04225133 214.29544646 164.05659531 212.48192895 164.07831669 210.6685133 C164.24577024 196.09871371 162.78691608 184.78903879 152.53039646 173.57172108 C143.76135426 165.08433976 132.61646761 162.82084364 120.83241367 162.88025379 C119.87229356 162.87713381 118.91217345 162.87401383 117.92295879 162.8707993 C114.72115918 162.8628526 111.51955084 162.86913002 108.31774998 162.87543201 C106.01593 162.87272066 103.7141109 162.86915892 101.41229343 162.8648119 C95.17060472 162.85570234 88.9289822 162.85922642 82.68729234 162.86557007 C76.15053045 162.87063805 69.61377418 162.86593633 63.07701206 162.86279774 C51.39620263 162.85852768 39.71542101 162.86513832 28.0346164 162.87531641 C17.45563952 162.88424927 6.87670654 162.88270092 -3.70226955 162.87347889 C-16.00166278 162.86276206 -28.30102804 162.85879934 -40.6004253 162.86470342 C-47.10579867 162.8678184 -53.61114183 162.86824544 -60.11651325 162.86163044 C-66.23392013 162.85584438 -72.35124427 162.85987704 -78.46864223 162.87141895 C-80.71115958 162.8740589 -82.95368391 162.87331184 -85.19619846 162.86889362 C-88.26243804 162.86341045 -91.32841421 162.87030604 -94.39463711 162.88025379 C-95.27733743 162.87579235 -96.16003775 162.8713309 -97.06948656 162.86673427 C-110.5296958 162.95115348 -121.17634145 167.05082747 -130.34460354 177.13422108 Z " fill="#000000" transform="translate(153.34460353851318,-0.13422107696533203)"/>
<path d="M0 0 C0.97333532 -0.00638882 1.94667065 -0.01277764 2.94950098 -0.01936007 C6.21410114 -0.03463223 9.47749207 -0.01413328 12.74205017 0.00622559 C15.08109947 0.0027251 17.4201464 -0.00293265 19.75918579 -0.0105896 C26.11448515 -0.02485664 32.46935284 -0.00775727 38.82461095 0.01569557 C44.7959702 0.03374035 50.76729072 0.03056002 56.73867112 0.02821773 C68.56994966 0.02452797 80.40106019 0.04535021 92.23228455 0.07946777 C103.71442409 0.11256641 115.19638732 0.12672477 126.67857361 0.1204834 C140.51445847 0.11299962 154.35023934 0.12036195 168.18610954 0.14213562 C173.47192404 0.15032154 178.75769966 0.15301698 184.04351997 0.15144348 C190.26434778 0.15056621 196.48496412 0.16473844 202.70573616 0.19067001 C204.99226863 0.19784781 207.27882357 0.19990773 209.56536484 0.19655228 C212.67963152 0.19285308 215.79327572 0.20753096 218.9074707 0.22705078 C219.81845443 0.22172286 220.72943816 0.21639493 221.66802746 0.21090555 C227.72519692 0.27668766 227.72519692 0.27668766 230.92432308 1.93517303 C233.30308675 4.67152758 233.32906168 7.07291247 233.39024353 10.62145996 C232.04461954 13.56901728 231.30469809 15.16423268 228.39024353 16.62145996 C225.30232167 16.72859669 222.23650739 16.77368327 219.14797974 16.77536011 C218.17791325 16.77974236 217.20784677 16.78412462 216.20838434 16.78863966 C212.93721506 16.80206197 209.66607274 16.80821419 206.3948822 16.81433105 C204.05790077 16.82222923 201.72092056 16.830498 199.38394165 16.83911133 C191.69204376 16.86536135 184.00014034 16.88064058 176.30821228 16.89489746 C173.66409616 16.90025566 171.01998007 16.90563316 168.37586403 16.91102982 C157.38091553 16.93286087 146.38596662 16.95155164 135.3910017 16.96265221 C132.53715193 16.96558198 129.6833022 16.96854363 126.82945251 16.97155762 C126.12012875 16.97230367 125.41080499 16.97304972 124.67998657 16.97381838 C113.1859319 16.98647563 101.69203178 17.01970327 90.19804939 17.06135945 C78.40176143 17.10376139 66.60555264 17.12734516 54.80918866 17.13257277 C48.18416248 17.13598876 41.5593507 17.14833129 34.93439293 17.18067551 C28.70371979 17.21065847 22.47346853 17.2171027 16.24273872 17.20529175 C13.95337734 17.2050702 11.66399693 17.21344156 9.37470245 17.23094559 C6.25377443 17.25351325 3.13439232 17.24539919 0.01345825 17.22946167 C-0.896659 17.24334376 -1.80677624 17.25722584 -2.7444728 17.2715286 C-7.19368028 17.21538341 -9.03753366 17.06066283 -12.67214489 14.27095985 C-14.60975647 11.62145996 -14.60975647 11.62145996 -15.23475647 8.62145996 C-13.48133588 0.20504112 -7.22059685 -0.09946194 0 0 Z " fill="#000000" transform="translate(164.60975646972656,50.3785400390625)"/>
<path d="M0 0 C0.98135357 -0.0055344 1.96270714 -0.01106879 2.97379869 -0.0167709 C6.27131636 -0.03041445 9.568082 -0.01538774 12.86558533 -0.00050354 C15.22581301 -0.00428533 17.58603848 -0.00978421 19.94625854 -0.01687622 C26.36346778 -0.03086546 32.78040995 -0.01963688 39.19760442 -0.00316501 C45.22474669 0.01093754 51.25189187 0.00507741 57.27904373 0.00170528 C69.22069574 -0.00417452 81.16224234 0.01000354 93.10386658 0.03465271 C104.6966802 0.05857925 116.28935301 0.06565506 127.88218689 0.05516052 C140.50159584 0.04375716 153.12093965 0.0418136 165.7403478 0.05625862 C167.08532583 0.05778449 168.43030387 0.05930484 169.77528191 0.06081963 C170.43706628 0.06157744 171.09885066 0.06233525 171.78068911 0.06311603 C176.44910568 0.06786296 181.11747587 0.06589618 185.78589058 0.06175423 C192.06578647 0.05699423 198.3454866 0.06704565 204.62534523 0.08870888 C206.9348764 0.09429001 209.24442633 0.09472998 211.55395889 0.08975601 C214.69708108 0.08383395 217.83959846 0.09624919 220.98266602 0.11352539 C221.9050266 0.10751535 222.82738719 0.1015053 223.7776981 0.09531313 C224.61721939 0.10375307 225.45674068 0.11219301 226.321702 0.12088871 C227.04745759 0.12191784 227.77321317 0.12294697 228.52096134 0.12400728 C231.00947097 0.6162571 231.87902462 1.52539152 233.42784119 3.50120544 C234.50239647 7.03188709 234.71012053 8.81118928 233.30284119 12.25120544 C230.7605571 15.30194634 228.43281424 16.31745402 224.44658005 16.68278372 C221.96933489 16.76282773 219.49989727 16.77245127 217.0213623 16.76190186 C216.06985588 16.7657274 215.11834945 16.76955295 214.13800949 16.77349442 C210.94753597 16.78381874 207.75724261 16.77983332 204.5667572 16.77586365 C202.28021579 16.78021042 199.99367584 16.78539344 197.70713806 16.79135132 C191.49440312 16.80475592 185.28172895 16.80531838 179.06898236 16.80278802 C173.8848973 16.80171936 168.70082459 16.80659896 163.51674217 16.81139344 C150.5890411 16.82312844 137.66137887 16.82226064 124.73367613 16.81583663 C113.50888956 16.81066711 102.28418976 16.82192396 91.05942035 16.84093485 C79.53083529 16.86031047 68.00230154 16.86827829 56.47369903 16.8648116 C50.0024503 16.86299671 43.53128105 16.86565549 37.06004524 16.87952614 C30.97549015 16.8920797 24.89110905 16.8901837 18.8065567 16.87711525 C16.57245513 16.87474458 14.33834141 16.87750162 12.10425377 16.88573837 C9.05640058 16.8961658 6.00913552 16.88813709 2.96130371 16.87542725 C2.07560041 16.88280153 1.1898971 16.89017582 0.2773543 16.89777356 C-4.7382309 16.8537208 -8.23736856 16.31580182 -12.57215881 13.50120544 C-14.11802757 10.40946793 -13.86575403 7.90690992 -13.57215881 4.50120544 C-10.18496699 -0.73051157 -5.64086905 -0.05888363 0 0 Z " fill="#000000" transform="translate(235.57215881347656,364.49879455566406)"/>
<path d="M0 0 C0.95050315 -0.00226556 1.90100629 -0.00453111 2.88031256 -0.00686532 C6.07928837 -0.01321766 9.27822194 -0.01237517 12.47720337 -0.0115509 C14.76507116 -0.01454162 17.05293844 -0.01794395 19.34080505 -0.02172852 C25.5659739 -0.03058155 31.79112901 -0.03290718 38.01630354 -0.0335443 C43.20783497 -0.03449241 48.39936319 -0.03816957 53.59089339 -0.0417164 C65.13640475 -0.04940007 76.68190826 -0.05238457 88.22742181 -0.05171105 C89.26686202 -0.05165111 89.26686202 -0.05165111 90.32730103 -0.05158997 C91.02110621 -0.05154909 91.7149114 -0.0515082 92.42974098 -0.05146609 C103.67470959 -0.05105961 114.91964471 -0.06062927 126.16460364 -0.07472833 C137.70780312 -0.08908726 149.25098194 -0.09581558 160.794191 -0.09513456 C167.2760414 -0.0948792 173.75785392 -0.09775097 180.2396965 -0.10831261 C186.33485704 -0.1179726 192.42994332 -0.1180872 198.52510643 -0.11079597 C200.76446452 -0.10974752 203.00382719 -0.11212841 205.24317741 -0.11815643 C208.29575133 -0.12584244 211.34806665 -0.12125399 214.40063477 -0.11352539 C215.29061515 -0.11866895 216.18059554 -0.12381252 217.09754503 -0.12911195 C221.41729769 -0.10487774 224.95223649 -0.01622394 228.82730103 2.13371277 C231.24687245 5.03719848 231.85424065 6.46022208 231.70230103 10.25871277 C230.78768073 13.26389374 230.23739321 14.23038454 227.82730103 16.13371277 C225.92042118 16.51091093 225.92042118 16.51091093 223.72116184 16.5140295 C222.88164055 16.52246944 222.04211927 16.53090938 221.17715794 16.53960508 C219.79361706 16.53059001 219.79361706 16.53059001 218.38212585 16.52139282 C217.40233228 16.52677836 216.4225387 16.5321639 215.41305441 16.53771263 C212.114894 16.55207243 208.81713043 16.54486868 205.51895142 16.5377655 C203.16049373 16.54346487 200.8020388 16.55042743 198.44358826 16.55856323 C192.02630708 16.57655759 185.60916216 16.57531446 179.1918633 16.56962085 C175.18615142 16.56656437 171.18045144 16.56951162 167.17474174 16.57409859 C166.51021641 16.57484701 165.84569107 16.57559543 165.1610286 16.57636653 C163.81113612 16.57789798 162.46124365 16.57943632 161.11135118 16.5809815 C148.44587128 16.59471659 135.78045311 16.58926184 123.11497461 16.57779629 C111.52332425 16.56786335 99.9318335 16.58080376 88.34020776 16.60473048 C76.44330628 16.62910266 64.54647919 16.63873397 52.64955324 16.63207775 C45.96817731 16.62858126 39.28690585 16.63117884 32.60554695 16.64832878 C26.32399131 16.66374768 20.04274138 16.65989847 13.76119804 16.64102364 C11.45208166 16.63732374 9.14294287 16.64048667 6.83384705 16.65090942 C3.68869424 16.66402504 0.54456761 16.65265522 -2.60054016 16.63491821 C-3.98073496 16.64932572 -3.98073496 16.64932572 -5.38881248 16.66402429 C-11.52290214 16.59253675 -11.52290214 16.59253675 -14.7397089 14.32113743 C-16.85188544 11.09695107 -16.71055562 8.89870928 -16.17269897 5.13371277 C-11.81512925 -0.57620618 -6.65047832 -0.01151438 0 0 Z " fill="#000000" transform="translate(238.17269897460938,327.8662872314453)"/>
<path d="M0 0 C0.97006648 -0.00367669 1.94013296 -0.00735338 2.9395954 -0.01114148 C6.21076804 -0.02221042 9.48190894 -0.02602757 12.75309753 -0.02983093 C15.09007875 -0.0360931 17.42705897 -0.04273967 19.76403809 -0.04974365 C26.12768532 -0.06717494 32.49132503 -0.07771093 38.85499024 -0.08594918 C42.82736674 -0.09109417 46.79974087 -0.09717008 50.77211571 -0.10346031 C61.76706644 -0.12047292 72.76201616 -0.13496773 83.75697803 -0.14220905 C86.61082778 -0.144119 89.46467751 -0.14603932 92.31852722 -0.147995 C93.38251286 -0.14872061 93.38251286 -0.14872061 94.46799316 -0.14946087 C105.96202203 -0.15776356 117.4559469 -0.1831043 128.94993035 -0.21557567 C140.74621936 -0.24862985 152.54245549 -0.2666563 164.33879107 -0.26985329 C170.96378146 -0.27201988 177.58863745 -0.28123166 184.21358681 -0.30631447 C190.4442187 -0.32952287 196.67457717 -0.3338575 202.90524101 -0.32355309 C205.19459566 -0.32305587 207.48396344 -0.32943054 209.77327728 -0.34310913 C212.89402329 -0.36071517 216.01377604 -0.35377721 219.13452148 -0.34057617 C220.04463873 -0.35154542 220.95475598 -0.36251466 221.89245254 -0.37381631 C225.99564433 -0.33178921 228.22372231 -0.16943716 231.82012463 1.96281147 C233.75773621 4.14717102 233.75773621 4.14717102 234.38273621 7.58467102 C233.58021188 12.15905969 232.44645392 13.35484873 228.75773621 16.14717102 C225.5651061 16.86901925 222.44791086 16.80948686 219.1859436 16.76190186 C218.21669183 16.76758511 217.24744006 16.77326837 216.24881703 16.77912384 C212.99801796 16.79205228 209.74845774 16.76921418 206.49772644 16.74653625 C204.16853067 16.74839984 201.83933576 16.75243545 199.51014709 16.75848389 C193.18169356 16.76847406 186.85368657 16.74726278 180.52529788 16.72000384 C174.57913586 16.6986175 168.63300627 16.6990557 162.68681181 16.69890261 C150.9054421 16.69771537 139.12424301 16.67274568 127.34294128 16.63423157 C115.90932671 16.59687824 104.47583622 16.57563543 93.04216003 16.57270813 C92.33781731 16.57252532 91.63347459 16.57234251 90.90778815 16.57215416 C90.2046661 16.57197519 89.50154406 16.57179622 88.77711529 16.57161182 C87.36143998 16.57124641 85.94576468 16.57087403 84.53008938 16.57049465 C83.83193738 16.57030914 83.13378538 16.57012362 82.41447726 16.56993249 C70.86194624 16.56614694 59.30943921 16.54531998 47.75692868 16.52449155 C43.81104017 16.51825641 39.8651559 16.5146242 35.91926384 16.51145744 C29.72473764 16.50556567 23.53032212 16.48927701 17.33584213 16.46485329 C15.05898328 16.45739971 12.78211049 16.45334048 10.50523949 16.45287323 C7.40422646 16.45161965 4.30350735 16.43810659 1.20254517 16.42132568 C0.29545238 16.42374077 -0.6116404 16.42615585 -1.54622084 16.42864412 C-2.37666629 16.42157853 -3.20711174 16.41451294 -4.06272221 16.40723324 C-5.13630296 16.40430685 -5.13630296 16.40430685 -6.23157221 16.40132135 C-8.6456971 16.09617727 -10.2015956 15.47167089 -12.24226379 14.14717102 C-14.07293204 10.00826889 -14.58157788 8.06331907 -12.99226379 3.77217102 C-9.72332341 -1.13123955 -5.39932315 -0.00108576 0 0 Z " fill="#000000" transform="translate(56.24226379394531,234.8528289794922)"/>
<path d="M0 0 C0.9748556 -0.00367669 1.9497112 -0.00735338 2.95410788 -0.01114148 C6.241434 -0.02221049 9.52872856 -0.02602757 12.81607056 -0.02983093 C15.16452638 -0.03609305 17.51298121 -0.04273962 19.86143494 -0.04974365 C26.92333952 -0.06899349 33.98524057 -0.07957437 41.04716486 -0.08847144 C44.3709586 -0.09285286 47.69475076 -0.09822158 51.01854324 -0.10346031 C62.06410835 -0.12047212 73.10967245 -0.13496746 84.15524864 -0.14220905 C87.02216976 -0.14411901 89.88909087 -0.14603933 92.75601196 -0.147995 C93.46858865 -0.14847874 94.18116533 -0.14896248 94.91533525 -0.14946087 C106.46500489 -0.15776559 118.01457111 -0.18311011 129.56419556 -0.21557567 C141.41585034 -0.24861931 153.26745251 -0.26665531 165.11915362 -0.26985329 C171.77597566 -0.27202076 178.43265455 -0.28124469 185.08942795 -0.30631447 C191.34878352 -0.32950655 197.60786694 -0.33386417 203.86725426 -0.32355309 C206.1683168 -0.32305548 208.46939235 -0.32944141 210.77041435 -0.34310913 C213.90464681 -0.36068875 217.03788766 -0.35379048 220.17211914 -0.34057617 C221.08904018 -0.35154542 222.00596122 -0.36251466 222.95066774 -0.37381631 C229.06633907 -0.31128769 229.06633907 -0.31128769 232.27419472 1.96281147 C234.42384526 5.22626117 234.31606984 7.3280024 233.71304321 11.14717102 C231.71686421 13.9120632 230.12588745 15.82592992 226.69923687 16.60505402 C224.16959987 16.79131815 221.68437426 16.80856155 219.14797974 16.77536011 C218.17943353 16.78245449 217.21088733 16.78954888 216.21299124 16.79685825 C212.96455914 16.81447327 209.71731797 16.7963149 206.46890259 16.77827454 C204.14132644 16.78341199 201.81375417 16.79069194 199.4861908 16.79995728 C193.1618267 16.81850139 186.83788315 16.80551331 180.51353645 16.78586698 C174.57022275 16.77116213 168.62695402 16.77708656 162.68362945 16.78192388 C150.90674396 16.79049089 139.13002492 16.77381606 127.35317993 16.74409485 C115.92635099 16.71525738 104.49976184 16.70817384 93.07290649 16.72358704 C80.62888217 16.74034926 68.18497168 16.74438323 55.74094439 16.72687668 C49.15402866 16.71776987 42.56721887 16.7136828 35.9803009 16.72291756 C29.78815116 16.73056931 23.59634751 16.71849006 17.40425682 16.69106865 C15.12943232 16.68417215 12.85457558 16.68410031 10.57975197 16.69128418 C7.47881511 16.69994968 4.37895348 16.68407116 1.27810669 16.66183472 C0.37392675 16.67007548 -0.53025319 16.67831625 -1.46183252 16.68680674 C-5.58732533 16.63205523 -7.74411652 16.48405976 -11.32227325 14.26344204 C-13.65979177 11.74556951 -14.28695679 10.58308933 -14.28695679 7.14717102 C-11.12863271 -0.67344099 -7.78144344 -0.00155702 0 0 Z " fill="#000000" transform="translate(56.286956787109375,198.8528289794922)"/>
<path d="M0 0 C1.10217065 -0.00467997 1.10217065 -0.00467997 2.22660738 -0.00945449 C4.69555051 -0.01744939 7.16424888 -0.01110508 9.63319397 -0.00482178 C11.40052434 -0.007531 13.16785357 -0.01109155 14.93518066 -0.01544189 C19.7409315 -0.02457698 24.54659667 -0.02101686 29.35234904 -0.01468372 C34.37667625 -0.00962873 39.400996 -0.01431385 44.42532349 -0.01745605 C52.86474426 -0.0210975 61.30413006 -0.01629228 69.74354553 -0.0067749 C79.5052769 0.00410646 89.2669247 0.00058709 99.02865404 -0.01042771 C107.4032373 -0.01949972 115.77779537 -0.02078618 124.15238196 -0.01555037 C129.15699067 -0.01242975 134.1615601 -0.01202382 139.16616631 -0.01862335 C143.87176619 -0.02439479 148.57725823 -0.0204036 153.28284645 -0.00883484 C155.011441 -0.00618702 156.7400446 -0.00695541 158.46863556 -0.01136017 C160.82532353 -0.01681236 163.18166432 -0.00998553 165.53833008 0 C166.85812835 0.00075405 168.17792662 0.0015081 169.53771877 0.002285 C172.61767955 0.23754635 174.2989613 0.55625915 176.83265686 2.25396729 C178.91424706 4.93029754 178.82853277 6.37150396 178.70765686 9.81646729 C177.83265686 13.25396729 177.83265686 13.25396729 176.2381897 14.94458103 C172.99419718 16.71035997 170.06944971 16.67283634 166.46913147 16.64164734 C165.7253295 16.64703288 164.98152754 16.65241841 164.21518612 16.65796715 C161.72162289 16.67228032 159.22858801 16.66513494 156.73500061 16.65802002 C154.94781568 16.6637218 153.16063439 16.67068531 151.37345886 16.67881775 C146.51815773 16.69678438 141.66303697 16.69557434 136.80771255 16.68987536 C132.75679054 16.68678895 128.70590344 16.69286978 124.65498638 16.69891411 C115.10057366 16.71296889 105.54625033 16.71138978 95.99183655 16.70001221 C86.12833166 16.68852627 76.26509852 16.7026125 66.40162945 16.72940868 C57.93784256 16.75154314 49.47414112 16.75820826 41.01032734 16.75233227 C35.95314338 16.74895654 30.89613368 16.75141873 25.838974 16.7685833 C21.08483498 16.78401477 16.33109963 16.78013929 11.57697678 16.76127815 C9.83064223 16.75758189 8.08427802 16.76073082 6.33797073 16.77116394 C3.95690495 16.7843051 1.57718921 16.77288905 -0.80381775 16.75517273 C-1.49759049 16.76477774 -2.19136324 16.77438274 -2.9061594 16.78427881 C-6.24221668 16.73307897 -7.90787671 16.4569683 -10.56896973 14.37498569 C-12.46719505 11.85606813 -13.09029643 10.41288223 -13.16734314 7.25396729 C-10.15206049 0.7711096 -6.8343038 0.00390581 0 0 Z " fill="#000000" transform="translate(219.16734313964844,86.74603271484375)"/>
<path d="M0 0 C1.17487976 -0.00571014 2.34975952 -0.01142029 3.5602417 -0.01730347 C4.85070404 -0.01842133 6.14116638 -0.01953918 7.47073364 -0.02069092 C8.84235772 -0.02531981 10.21398051 -0.03034456 11.58560181 -0.03573608 C15.31291325 -0.0488544 19.04020668 -0.05530381 22.76753759 -0.05974674 C25.09614778 -0.06267809 27.42475304 -0.066783 29.75336075 -0.07125092 C37.03891695 -0.08492371 44.32446191 -0.0945917 51.61003006 -0.09845281 C60.02057608 -0.10293462 68.43095967 -0.12048906 76.84145629 -0.1494534 C83.34260608 -0.17106536 89.84371015 -0.18115681 96.34489548 -0.18249393 C100.22784616 -0.18354221 104.11064411 -0.18945503 107.99355698 -0.20731354 C111.64614602 -0.22378615 115.29846738 -0.22595382 118.95108032 -0.21717453 C120.92893416 -0.21603646 122.90677909 -0.22975969 124.88458252 -0.243927 C126.65536163 -0.23557327 126.65536163 -0.23557327 128.46191406 -0.22705078 C129.48581678 -0.22851734 130.50971951 -0.2299839 131.56464958 -0.2314949 C134.8276549 0.20298604 136.71384187 1.20975213 139.35794067 3.14044189 C140.78456286 5.99368627 140.66827935 7.97498738 140.35794067 11.14044189 C138.70846558 13.79997826 138.70846558 13.79997826 136.35794067 16.14044189 C133.62802124 16.7696476 133.62802124 16.7696476 130.43704224 16.77536011 C129.22568604 16.78945923 128.01432983 16.80355835 126.76626587 16.81808472 C125.42702873 16.80836355 124.08779528 16.79812273 122.74856567 16.78741455 C121.3357531 16.79419101 119.92294936 16.80309432 118.51016235 16.81396484 C114.67532197 16.83676216 110.84115404 16.82792062 107.00630188 16.81206942 C102.99361353 16.79941241 98.98098284 16.81114996 94.96829224 16.81900024 C88.22958028 16.82809744 81.49114229 16.81610725 74.75247192 16.79229736 C66.96104604 16.76508571 59.17027432 16.77389984 51.37886429 16.80142939 C44.68997217 16.82411765 38.00127702 16.82732201 31.31235886 16.81423604 C27.31706774 16.80643987 23.32208412 16.80540419 19.32681274 16.82191849 C15.57056552 16.83636018 11.8151618 16.82634852 8.05900574 16.7974472 C6.68034771 16.79083456 5.30161871 16.79273731 3.92298889 16.80376053 C2.04163138 16.8174168 0.16011877 16.79725655 -1.72116089 16.77536011 C-2.77418396 16.77347498 -3.82720703 16.77158985 -4.91213989 16.7696476 C-7.64205933 16.14044189 -7.64205933 16.14044189 -9.98477173 13.79216576 C-12.00264644 10.56348865 -12.19979732 8.88525416 -11.64205933 5.14044189 C-8.78456675 0.10581212 -5.43958771 0.01581485 0 0 Z " fill="#000000" transform="translate(161.64205932617188,122.85955810546875)"/>
<path d="M0 0 C1.2113562 -0.01272446 2.4227124 -0.02544891 3.67077637 -0.03855896 C5.01001172 -0.03237677 6.34924517 -0.02577076 7.68847656 -0.01878357 C9.10128684 -0.02584216 10.51408955 -0.03458693 11.92687988 -0.04489136 C15.76162387 -0.06740104 19.59595545 -0.06444234 23.43074036 -0.05556989 C26.63169536 -0.05046176 29.83257274 -0.05775101 33.03351974 -0.06504196 C40.58393888 -0.08204558 48.13415594 -0.0784701 55.68457031 -0.06175232 C63.47597989 -0.04482414 71.26682951 -0.06067365 79.05817795 -0.0929752 C85.74705529 -0.11965627 92.43575816 -0.12695135 99.12468338 -0.11846012 C103.11999185 -0.11352725 107.11496323 -0.1157657 111.11022949 -0.13624763 C114.86644862 -0.15458227 118.62186094 -0.14867455 122.3780365 -0.12404823 C123.75670467 -0.1190334 125.13543408 -0.12254774 126.51405334 -0.13519669 C128.39538332 -0.15109301 130.27690864 -0.1331776 132.15820312 -0.11352539 C133.2112262 -0.11293908 134.26424927 -0.11235277 135.34918213 -0.1117487 C138.07910156 0.5146637 138.07910156 0.5146637 140.45306396 2.82736301 C142.07910156 5.5146637 142.07910156 5.5146637 142.01660156 9.1396637 C141.12121499 12.36305536 140.72803271 13.60743327 138.07910156 15.5146637 C135.45168428 16.82837234 133.50083097 16.64655538 130.55729675 16.65510559 C128.79703911 16.66367081 128.79703911 16.66367081 127.0012207 16.67240906 C125.06013428 16.67408585 125.06013428 16.67408585 123.07983398 16.67579651 C121.7083574 16.68042395 120.33688211 16.68544851 118.96540833 16.69084167 C115.23390558 16.70397576 111.50242084 16.71041271 107.77089858 16.71485233 C105.44011616 16.71778173 103.10933867 16.7218863 100.77855873 16.72635651 C93.48765974 16.74003473 86.19677201 16.74969952 78.90586108 16.7535584 C70.48681498 16.75803867 62.06793127 16.77558365 53.64893454 16.80455899 C47.14355867 16.82617171 40.63822849 16.83626247 34.13281709 16.83759952 C30.24649812 16.83864794 26.36033173 16.84456339 22.47405052 16.86241913 C18.81737094 16.8788926 15.16095875 16.88105898 11.50425529 16.87228012 C9.52400648 16.87114203 7.54376658 16.88486542 5.56356812 16.89903259 C4.38160355 16.89346344 3.19963898 16.88789429 1.9818573 16.88215637 C0.95665576 16.88362293 -0.06854578 16.88508949 -1.12481403 16.88660049 C-4.38951615 16.45232789 -6.27565113 15.44656241 -8.92089844 13.5146637 C-10.4667672 10.42292618 -10.21449365 7.92036817 -9.92089844 4.5146637 C-6.96020656 0.57587706 -4.829692 0.01287395 0 0 Z " fill="#000000" transform="translate(231.9208984375,400.48533630371094)"/>
<path d="M0 0 C1.18466858 -0.00852997 2.36933716 -0.01705994 3.58990479 -0.02584839 C4.88612259 -0.02494202 6.18234039 -0.02403564 7.51783752 -0.02310181 C8.89946353 -0.02908744 10.2810862 -0.03589307 11.66270447 -0.04345703 C15.41270163 -0.06111911 19.16260751 -0.06581245 22.91264224 -0.0670886 C25.25583835 -0.06851046 27.59901127 -0.07278066 29.94220161 -0.07808304 C38.11765644 -0.09658285 46.29304606 -0.10475357 54.46852112 -0.10317993 C62.08827474 -0.10197801 69.70774534 -0.1230903 77.32742733 -0.15466726 C83.87106993 -0.1808183 90.41462002 -0.19154775 96.95831448 -0.19026911 C100.86588019 -0.1897592 104.77319429 -0.19545848 108.68070793 -0.21662521 C112.35554819 -0.23598852 116.02989626 -0.23614564 119.70475388 -0.22159195 C121.69453056 -0.21850383 123.68430718 -0.23519297 125.67401123 -0.25247192 C126.86149963 -0.24408295 128.04898804 -0.23569397 129.27246094 -0.22705078 C130.30243918 -0.22814032 131.33241743 -0.22922985 132.39360714 -0.2303524 C135.94085501 0.39889538 137.63349426 1.7896521 140.19972229 4.26742554 C140.82862854 6.26742554 140.82862854 6.26742554 140.76222229 8.26742554 C140.76351135 8.92742554 140.76480042 9.58742554 140.76612854 10.26742554 C139.94158195 13.17892798 138.52814271 14.36383747 136.19972229 16.26742554 C133.48542023 16.7707901 133.48542023 16.7707901 130.31678772 16.77536011 C129.11384567 16.7866394 127.91090363 16.7979187 126.67150879 16.80953979 C125.35501846 16.80144287 124.03852814 16.79334595 122.68214417 16.78500366 C121.27918776 16.79042486 119.87623705 16.79754752 118.47329712 16.8062439 C114.66539366 16.82448081 110.85792364 16.81740849 107.05001259 16.80472755 C103.06535802 16.79460167 99.08074061 16.80399208 95.09608459 16.81027222 C88.40448848 16.81754985 81.71306894 16.80795798 75.02149963 16.78890991 C67.28468471 16.76714082 59.54829142 16.77419212 51.81148672 16.79621553 C45.1693236 16.81436633 38.52728742 16.81692946 31.88510752 16.80646086 C27.91780085 16.80022412 23.95069238 16.79939511 19.98339844 16.81260681 C16.25352679 16.82416019 12.52419881 16.81614971 8.79438591 16.79302979 C6.77224348 16.78521597 4.75005507 16.79710298 2.72793579 16.80953979 C0.92352272 16.79262085 0.92352272 16.79262085 -0.91734314 16.77536011 C-1.96299187 16.77385201 -3.00864059 16.7723439 -4.08597565 16.7707901 C-7.49975777 16.13770767 -8.66590661 14.95037264 -10.80027771 12.26742554 C-11.88260452 9.25237228 -11.90797458 7.68842238 -11.11277771 4.57992554 C-8.5486706 0.062213 -4.86947191 0.01585172 0 0 Z " fill="#000000" transform="translate(53.80027770996094,270.7325744628906)"/>
<path d="M0 0 C1.0370105 -0.00006042 1.0370105 -0.00006042 2.0949707 -0.00012207 C3.55071141 0.00521844 5.00645282 0.02273887 6.46191406 0.05175781 C8.6812415 0.09363192 10.89753129 0.09282168 13.1171875 0.0859375 C25.40939414 0.17682129 25.40939414 0.17682129 29.6875 3.59375 C30.86838423 7.57923426 31.11351594 9.66057223 29.375 13.46875 C27.6875 15.59375 27.6875 15.59375 25.6875 16.59375 C21.03188657 16.87638541 16.375541 16.90742651 11.7121582 16.94384766 C10.15927123 16.96039362 8.60646 16.98766642 7.05395508 17.02587891 C4.81030959 17.08079414 2.56844675 17.10254138 0.32421875 17.1171875 C-0.71041252 17.15119156 -0.71041252 17.15119156 -1.76594543 17.18588257 C-5.61929611 17.16908642 -7.20147942 16.68236351 -10.25073242 14.24853516 C-12.3125 11.59375 -12.3125 11.59375 -12.9375 8.59375 C-11.45770617 1.49073961 -6.63573342 -0.03667993 0 0 Z " fill="#000000" transform="translate(162.3125,86.40625)"/>
</svg>
