<?xml version="1.0" encoding="UTF-8" standalone="no"?>
<!DOCTYPE svg PUBLIC "-//W3C//DTD SVG 1.1//EN" "http://www.w3.org/Graphics/SVG/1.1/DTD/svg11.dtd">
<svg width="100%" height="100%" viewBox="0 0 160 160" version="1.1" xmlns="http://www.w3.org/2000/svg" xmlns:xlink="http://www.w3.org/1999/xlink" xml:space="preserve" xmlns:serif="http://www.serif.com/" style="fill-rule:evenodd;clip-rule:evenodd;stroke-linejoin:round;stroke-miterlimit:2;">
    <g transform="matrix(1,0,0,1,-5632.71,-2395.7)">
        <g transform="matrix(1.46353,0,0,2.94925,-16423.4,-2364.82)">
            <g transform="matrix(2.01516,0,0,1,7358.66,899.808)">
                <g transform="matrix(0.2,0,0,0.2,3043.2,563.223)">
                    <path d="M3989.42,766L3989.42,816C3989.42,821.753 3984.75,826.417 3979,826.417L3929,826.417C3923.25,826.417 3918.58,821.753 3918.58,816L3918.58,766C3918.58,760.247 3923.25,755.583 3929,755.583L3979,755.583C3984.75,755.583 3989.42,760.247 3989.42,766ZM3968.58,776.417L3939.42,776.417L3939.42,805.583L3968.58,805.583L3968.58,776.417Z" style="fill:url(#_Linear1);"/>
                </g>
                <g transform="matrix(0.2,0,0,0.2,3063.2,563.223)">
                    <path d="M3989.42,766L3989.42,816C3989.42,821.753 3984.75,826.417 3979,826.417L3929,826.417C3923.25,826.417 3918.58,821.753 3918.58,816L3918.58,766C3918.58,760.247 3923.25,755.583 3929,755.583L3979,755.583C3984.75,755.583 3989.42,760.247 3989.42,766ZM3968.58,776.417L3939.42,776.417L3939.42,805.583L3968.58,805.583L3968.58,776.417Z" style="fill:url(#_Linear2);"/>
                </g>
                <g transform="matrix(0.2,0,0,0.2,3083.2,563.223)">
                    <path d="M3989.42,766L3989.42,816C3989.42,821.753 3984.75,826.417 3979,826.417L3929,826.417C3923.25,826.417 3918.58,821.753 3918.58,816L3918.58,766C3918.58,760.247 3923.25,755.583 3929,755.583L3979,755.583C3984.75,755.583 3989.42,760.247 3989.42,766ZM3968.58,776.417L3939.42,776.417L3939.42,805.583L3968.58,805.583L3968.58,776.417Z" style="fill:url(#_Linear3);"/>
                </g>
                <g transform="matrix(0.2,0,0,0.2,3043.2,583.223)">
                    <path d="M3989.42,766L3989.42,816C3989.42,821.753 3984.75,826.417 3979,826.417L3929,826.417C3923.25,826.417 3918.58,821.753 3918.58,816L3918.58,766C3918.58,760.247 3923.25,755.583 3929,755.583L3979,755.583C3984.75,755.583 3989.42,760.247 3989.42,766ZM3968.58,776.417L3939.42,776.417L3939.42,805.583L3968.58,805.583L3968.58,776.417Z" style="fill:url(#_Linear4);"/>
                </g>
                <g transform="matrix(0.2,0,0,0.2,3063.2,583.223)">
                    <path d="M3989.42,766L3989.42,816C3989.42,821.753 3984.75,826.417 3979,826.417L3929,826.417C3923.25,826.417 3918.58,821.753 3918.58,816L3918.58,766C3918.58,760.247 3923.25,755.583 3929,755.583L3979,755.583C3984.75,755.583 3989.42,760.247 3989.42,766ZM3968.58,776.417L3939.42,776.417L3939.42,805.583L3968.58,805.583L3968.58,776.417Z" style="fill:url(#_Linear5);"/>
                </g>
                <g transform="matrix(0.2,0,0,0.2,3083.2,583.223)">
                    <path d="M3989.42,766L3989.42,816C3989.42,821.753 3984.75,826.417 3979,826.417L3929,826.417C3923.25,826.417 3918.58,821.753 3918.58,816L3918.58,766C3918.58,760.247 3923.25,755.583 3929,755.583L3979,755.583C3984.75,755.583 3989.42,760.247 3989.42,766ZM3968.58,776.417L3939.42,776.417L3939.42,805.583L3968.58,805.583L3968.58,776.417Z" style="fill:url(#_Linear6);"/>
                </g>
                <g transform="matrix(0.2,0,0,0.2,3043.2,603.223)">
                    <path d="M3989.42,766L3989.42,816C3989.42,821.753 3984.75,826.417 3979,826.417L3929,826.417C3923.25,826.417 3918.58,821.753 3918.58,816L3918.58,766C3918.58,760.247 3923.25,755.583 3929,755.583L3979,755.583C3984.75,755.583 3989.42,760.247 3989.42,766ZM3968.58,776.417L3939.42,776.417L3939.42,805.583L3968.58,805.583L3968.58,776.417Z" style="fill:url(#_Linear7);"/>
                </g>
                <g transform="matrix(0.2,0,0,0.2,3063.2,603.223)">
                    <path d="M3989.42,766L3989.42,816C3989.42,821.753 3984.75,826.417 3979,826.417L3929,826.417C3923.25,826.417 3918.58,821.753 3918.58,816L3918.58,766C3918.58,760.247 3923.25,755.583 3929,755.583L3979,755.583C3984.75,755.583 3989.42,760.247 3989.42,766ZM3968.58,776.417L3939.42,776.417L3939.42,805.583L3968.58,805.583L3968.58,776.417Z" style="fill:url(#_Linear8);"/>
                </g>
                <g transform="matrix(0.2,0,0,0.2,3083.2,603.223)">
                    <path d="M3989.42,766L3989.42,816C3989.42,821.753 3984.75,826.417 3979,826.417L3929,826.417C3923.25,826.417 3918.58,821.753 3918.58,816L3918.58,766C3918.58,760.247 3923.25,755.583 3929,755.583L3979,755.583C3984.75,755.583 3989.42,760.247 3989.42,766ZM3968.58,776.417L3939.42,776.417L3939.42,805.583L3968.58,805.583L3968.58,776.417Z" style="fill:url(#_Linear9);"/>
                </g>
                <g transform="matrix(1,0,0,1,0,0.423245)">
                    <path d="M3847.53,714.527C3848.34,713.714 3849.66,713.714 3850.47,714.527C3851.29,715.34 3851.29,716.66 3850.47,717.473L3840.47,727.473C3839.66,728.286 3838.34,728.286 3837.53,727.473C3836.71,726.66 3836.71,725.34 3837.53,724.527L3847.53,714.527Z" style="fill:url(#_Linear10);"/>
                </g>
                <g transform="matrix(1,0,0,1,0,0.423245)">
                    <path d="M3847.53,724.527C3848.34,723.714 3849.66,723.714 3850.47,724.527C3851.29,725.34 3851.29,726.66 3850.47,727.473L3840.47,737.473C3839.66,738.286 3838.34,738.286 3837.53,737.473C3836.71,736.66 3836.71,735.34 3837.53,734.527L3847.53,724.527Z" style="fill:url(#_Linear11);"/>
                </g>
                <g transform="matrix(1,0,0,1,0,0.423245)">
                    <path d="M3867.53,724.527C3868.34,723.714 3869.66,723.714 3870.47,724.527C3871.29,725.34 3871.29,726.66 3870.47,727.473L3860.47,737.473C3859.66,738.286 3858.34,738.286 3857.53,737.473C3856.71,736.66 3856.71,735.34 3857.53,734.527L3867.53,724.527Z" style="fill:url(#_Linear12);"/>
                </g>
                <g transform="matrix(1,0,0,1,0,0.423245)">
                    <path d="M3857.53,724.527C3858.34,723.714 3859.66,723.714 3860.47,724.527C3861.29,725.34 3861.29,726.66 3860.47,727.473L3850.47,737.473C3849.66,738.286 3848.34,738.286 3847.53,737.473C3846.71,736.66 3846.71,735.34 3847.53,734.527L3857.53,724.527Z" style="fill:url(#_Linear13);"/>
                </g>
                <g transform="matrix(1,0,0,1,0,0.423245)">
                    <path d="M3877.53,724.527C3878.34,723.714 3879.66,723.714 3880.47,724.527C3881.29,725.34 3881.29,726.66 3880.47,727.473L3850.47,757.473C3849.66,758.286 3848.34,758.286 3847.53,757.473C3846.71,756.66 3846.71,755.34 3847.53,754.527L3877.53,724.527Z" style="fill:url(#_Linear14);"/>
                </g>
                <g transform="matrix(1,0,0,1,0,0.423245)">
                    <path d="M3867.53,744.527C3868.34,743.714 3869.66,743.714 3870.47,744.527C3871.29,745.34 3871.29,746.66 3870.47,747.473L3860.47,757.473C3859.66,758.286 3858.34,758.286 3857.53,757.473C3856.71,756.66 3856.71,755.34 3857.53,754.527L3867.53,744.527Z" style="fill:url(#_Linear15);"/>
                </g>
                <g transform="matrix(1,0,0,1,0,0.423245)">
                    <path d="M3867.53,754.527C3868.34,753.714 3869.66,753.714 3870.47,754.527C3871.29,755.34 3871.29,756.66 3870.47,757.473L3860.47,767.473C3859.66,768.286 3858.34,768.286 3857.53,767.473C3856.71,766.66 3856.71,765.34 3857.53,764.527L3867.53,754.527Z" style="fill:url(#_Linear16);"/>
                </g>
                <g transform="matrix(1,0,0,1,0,0.423245)">
                    <path d="M3847.53,744.527C3848.34,743.714 3849.66,743.714 3850.47,744.527C3851.29,745.34 3851.29,746.66 3850.47,747.473L3840.47,757.473C3839.66,758.286 3838.34,758.286 3837.53,757.473C3836.71,756.66 3836.71,755.34 3837.53,754.527L3847.53,744.527Z" style="fill:url(#_Linear17);"/>
                </g>
            </g>
        </g>
    </g>
    <defs>
        <linearGradient id="_Linear1" x1="0" y1="0" x2="1" y2="0" gradientUnits="userSpaceOnUse" gradientTransform="matrix(320.121,0,0,320.121,3887.11,891)"><stop offset="0" style="stop-color:rgb(157,141,241);stop-opacity:1"/><stop offset="0.52" style="stop-color:rgb(127,167,228);stop-opacity:1"/><stop offset="1" style="stop-color:rgb(28,254,186);stop-opacity:1"/></linearGradient>
        <linearGradient id="_Linear2" x1="0" y1="0" x2="1" y2="0" gradientUnits="userSpaceOnUse" gradientTransform="matrix(320.121,0,0,320.121,3787.11,891)"><stop offset="0" style="stop-color:rgb(157,141,241);stop-opacity:1"/><stop offset="0.52" style="stop-color:rgb(127,167,228);stop-opacity:1"/><stop offset="1" style="stop-color:rgb(28,254,186);stop-opacity:1"/></linearGradient>
        <linearGradient id="_Linear3" x1="0" y1="0" x2="1" y2="0" gradientUnits="userSpaceOnUse" gradientTransform="matrix(320.121,0,0,320.121,3687.11,891)"><stop offset="0" style="stop-color:rgb(157,141,241);stop-opacity:1"/><stop offset="0.52" style="stop-color:rgb(127,167,228);stop-opacity:1"/><stop offset="1" style="stop-color:rgb(28,254,186);stop-opacity:1"/></linearGradient>
        <linearGradient id="_Linear4" x1="0" y1="0" x2="1" y2="0" gradientUnits="userSpaceOnUse" gradientTransform="matrix(320.121,0,0,320.121,3887.11,791)"><stop offset="0" style="stop-color:rgb(157,141,241);stop-opacity:1"/><stop offset="0.52" style="stop-color:rgb(127,167,228);stop-opacity:1"/><stop offset="1" style="stop-color:rgb(28,254,186);stop-opacity:1"/></linearGradient>
        <linearGradient id="_Linear5" x1="0" y1="0" x2="1" y2="0" gradientUnits="userSpaceOnUse" gradientTransform="matrix(320.121,0,0,320.121,3787.11,791)"><stop offset="0" style="stop-color:rgb(157,141,241);stop-opacity:1"/><stop offset="0.52" style="stop-color:rgb(127,167,228);stop-opacity:1"/><stop offset="1" style="stop-color:rgb(28,254,186);stop-opacity:1"/></linearGradient>
        <linearGradient id="_Linear6" x1="0" y1="0" x2="1" y2="0" gradientUnits="userSpaceOnUse" gradientTransform="matrix(320.121,0,0,320.121,3687.11,791)"><stop offset="0" style="stop-color:rgb(157,141,241);stop-opacity:1"/><stop offset="0.52" style="stop-color:rgb(127,167,228);stop-opacity:1"/><stop offset="1" style="stop-color:rgb(28,254,186);stop-opacity:1"/></linearGradient>
        <linearGradient id="_Linear7" x1="0" y1="0" x2="1" y2="0" gradientUnits="userSpaceOnUse" gradientTransform="matrix(320.121,0,0,320.121,3887.11,691)"><stop offset="0" style="stop-color:rgb(157,141,241);stop-opacity:1"/><stop offset="0.52" style="stop-color:rgb(127,167,228);stop-opacity:1"/><stop offset="1" style="stop-color:rgb(28,254,186);stop-opacity:1"/></linearGradient>
        <linearGradient id="_Linear8" x1="0" y1="0" x2="1" y2="0" gradientUnits="userSpaceOnUse" gradientTransform="matrix(320.121,0,0,320.121,3787.11,691)"><stop offset="0" style="stop-color:rgb(157,141,241);stop-opacity:1"/><stop offset="0.52" style="stop-color:rgb(127,167,228);stop-opacity:1"/><stop offset="1" style="stop-color:rgb(28,254,186);stop-opacity:1"/></linearGradient>
        <linearGradient id="_Linear9" x1="0" y1="0" x2="1" y2="0" gradientUnits="userSpaceOnUse" gradientTransform="matrix(320.121,0,0,320.121,3687.11,691)"><stop offset="0" style="stop-color:rgb(157,141,241);stop-opacity:1"/><stop offset="0.52" style="stop-color:rgb(127,167,228);stop-opacity:1"/><stop offset="1" style="stop-color:rgb(28,254,186);stop-opacity:1"/></linearGradient>
        <linearGradient id="_Linear10" x1="0" y1="0" x2="1" y2="0" gradientUnits="userSpaceOnUse" gradientTransform="matrix(64.0242,0,0,64.0242,3820.62,741)"><stop offset="0" style="stop-color:rgb(157,141,241);stop-opacity:1"/><stop offset="0.52" style="stop-color:rgb(127,167,228);stop-opacity:1"/><stop offset="1" style="stop-color:rgb(28,254,186);stop-opacity:1"/></linearGradient>
        <linearGradient id="_Linear11" x1="0" y1="0" x2="1" y2="0" gradientUnits="userSpaceOnUse" gradientTransform="matrix(64.0242,0,0,64.0242,3820.62,741)"><stop offset="0" style="stop-color:rgb(157,141,241);stop-opacity:1"/><stop offset="0.52" style="stop-color:rgb(127,167,228);stop-opacity:1"/><stop offset="1" style="stop-color:rgb(28,254,186);stop-opacity:1"/></linearGradient>
        <linearGradient id="_Linear12" x1="0" y1="0" x2="1" y2="0" gradientUnits="userSpaceOnUse" gradientTransform="matrix(64.0242,0,0,64.0242,3820.62,741)"><stop offset="0" style="stop-color:rgb(157,141,241);stop-opacity:1"/><stop offset="0.52" style="stop-color:rgb(127,167,228);stop-opacity:1"/><stop offset="1" style="stop-color:rgb(28,254,186);stop-opacity:1"/></linearGradient>
        <linearGradient id="_Linear13" x1="0" y1="0" x2="1" y2="0" gradientUnits="userSpaceOnUse" gradientTransform="matrix(64.0242,0,0,64.0242,3820.62,741)"><stop offset="0" style="stop-color:rgb(157,141,241);stop-opacity:1"/><stop offset="0.52" style="stop-color:rgb(127,167,228);stop-opacity:1"/><stop offset="1" style="stop-color:rgb(28,254,186);stop-opacity:1"/></linearGradient>
        <linearGradient id="_Linear14" x1="0" y1="0" x2="1" y2="0" gradientUnits="userSpaceOnUse" gradientTransform="matrix(64.0242,0,0,64.0242,3820.62,741)"><stop offset="0" style="stop-color:rgb(157,141,241);stop-opacity:1"/><stop offset="0.52" style="stop-color:rgb(127,167,228);stop-opacity:1"/><stop offset="1" style="stop-color:rgb(28,254,186);stop-opacity:1"/></linearGradient>
        <linearGradient id="_Linear15" x1="0" y1="0" x2="1" y2="0" gradientUnits="userSpaceOnUse" gradientTransform="matrix(64.0242,0,0,64.0242,3820.62,741)"><stop offset="0" style="stop-color:rgb(157,141,241);stop-opacity:1"/><stop offset="0.52" style="stop-color:rgb(127,167,228);stop-opacity:1"/><stop offset="1" style="stop-color:rgb(28,254,186);stop-opacity:1"/></linearGradient>
        <linearGradient id="_Linear16" x1="0" y1="0" x2="1" y2="0" gradientUnits="userSpaceOnUse" gradientTransform="matrix(64.0242,0,0,64.0242,3820.62,741)"><stop offset="0" style="stop-color:rgb(157,141,241);stop-opacity:1"/><stop offset="0.52" style="stop-color:rgb(127,167,228);stop-opacity:1"/><stop offset="1" style="stop-color:rgb(28,254,186);stop-opacity:1"/></linearGradient>
        <linearGradient id="_Linear17" x1="0" y1="0" x2="1" y2="0" gradientUnits="userSpaceOnUse" gradientTransform="matrix(64.0242,0,0,64.0242,3820.62,741)"><stop offset="0" style="stop-color:rgb(157,141,241);stop-opacity:1"/><stop offset="0.52" style="stop-color:rgb(127,167,228);stop-opacity:1"/><stop offset="1" style="stop-color:rgb(28,254,186);stop-opacity:1"/></linearGradient>
    </defs>
</svg>
