<?xml version="1.0" encoding="UTF-8" standalone="no"?>
<!DOCTYPE svg PUBLIC "-//W3C//DTD SVG 1.1//EN" "http://www.w3.org/Graphics/SVG/1.1/DTD/svg11.dtd">
<svg width="100%" height="100%" viewBox="0 0 990 181" version="1.1" xmlns="http://www.w3.org/2000/svg" xmlns:xlink="http://www.w3.org/1999/xlink" xml:space="preserve" xmlns:serif="http://www.serif.com/" style="fill-rule:evenodd;clip-rule:evenodd;stroke-linejoin:round;stroke-miterlimit:2;">
    <g transform="matrix(1,0,0,1,-5641.34,-1529.5)">
        <g transform="matrix(0.496239,0,0,1.27893,-2237.56,-466.132)">
            <g transform="matrix(3.34148,0,0,2.61271,-34281.8,-2621.67)">
                <g transform="matrix(2.01516,0,0,1,7299.18,886.321)">
                    <g transform="matrix(0.2,0,0,0.2,3043.2,563.223)">
                        <path d="M3989.42,766L3989.42,816C3989.42,821.753 3984.75,826.417 3979,826.417L3929,826.417C3923.25,826.417 3918.58,821.753 3918.58,816L3918.58,766C3918.58,760.247 3923.25,755.583 3929,755.583L3979,755.583C3984.75,755.583 3989.42,760.247 3989.42,766ZM3968.58,776.417L3939.42,776.417L3939.42,805.583L3968.58,805.583L3968.58,776.417Z" style="fill:url(#_Linear1);"/>
                    </g>
                    <g transform="matrix(0.2,0,0,0.2,3063.2,563.223)">
                        <path d="M3989.42,766L3989.42,816C3989.42,821.753 3984.75,826.417 3979,826.417L3929,826.417C3923.25,826.417 3918.58,821.753 3918.58,816L3918.58,766C3918.58,760.247 3923.25,755.583 3929,755.583L3979,755.583C3984.75,755.583 3989.42,760.247 3989.42,766ZM3968.58,776.417L3939.42,776.417L3939.42,805.583L3968.58,805.583L3968.58,776.417Z" style="fill:url(#_Linear2);"/>
                    </g>
                    <g transform="matrix(0.2,0,0,0.2,3083.2,563.223)">
                        <path d="M3989.42,766L3989.42,816C3989.42,821.753 3984.75,826.417 3979,826.417L3929,826.417C3923.25,826.417 3918.58,821.753 3918.58,816L3918.58,766C3918.58,760.247 3923.25,755.583 3929,755.583L3979,755.583C3984.75,755.583 3989.42,760.247 3989.42,766ZM3968.58,776.417L3939.42,776.417L3939.42,805.583L3968.58,805.583L3968.58,776.417Z" style="fill:url(#_Linear3);"/>
                    </g>
                    <g transform="matrix(0.2,0,0,0.2,3043.2,583.223)">
                        <path d="M3989.42,766L3989.42,816C3989.42,821.753 3984.75,826.417 3979,826.417L3929,826.417C3923.25,826.417 3918.58,821.753 3918.58,816L3918.58,766C3918.58,760.247 3923.25,755.583 3929,755.583L3979,755.583C3984.75,755.583 3989.42,760.247 3989.42,766ZM3968.58,776.417L3939.42,776.417L3939.42,805.583L3968.58,805.583L3968.58,776.417Z" style="fill:url(#_Linear4);"/>
                    </g>
                    <g transform="matrix(0.2,0,0,0.2,3063.2,583.223)">
                        <path d="M3989.42,766L3989.42,816C3989.42,821.753 3984.75,826.417 3979,826.417L3929,826.417C3923.25,826.417 3918.58,821.753 3918.58,816L3918.58,766C3918.58,760.247 3923.25,755.583 3929,755.583L3979,755.583C3984.75,755.583 3989.42,760.247 3989.42,766ZM3968.58,776.417L3939.42,776.417L3939.42,805.583L3968.58,805.583L3968.58,776.417Z" style="fill:url(#_Linear5);"/>
                    </g>
                    <g transform="matrix(0.2,0,0,0.2,3083.2,583.223)">
                        <path d="M3989.42,766L3989.42,816C3989.42,821.753 3984.75,826.417 3979,826.417L3929,826.417C3923.25,826.417 3918.58,821.753 3918.58,816L3918.58,766C3918.58,760.247 3923.25,755.583 3929,755.583L3979,755.583C3984.75,755.583 3989.42,760.247 3989.42,766ZM3968.58,776.417L3939.42,776.417L3939.42,805.583L3968.58,805.583L3968.58,776.417Z" style="fill:url(#_Linear6);"/>
                    </g>
                    <g transform="matrix(0.2,0,0,0.2,3043.2,603.223)">
                        <path d="M3989.42,766L3989.42,816C3989.42,821.753 3984.75,826.417 3979,826.417L3929,826.417C3923.25,826.417 3918.58,821.753 3918.58,816L3918.58,766C3918.58,760.247 3923.25,755.583 3929,755.583L3979,755.583C3984.75,755.583 3989.42,760.247 3989.42,766ZM3968.58,776.417L3939.42,776.417L3939.42,805.583L3968.58,805.583L3968.58,776.417Z" style="fill:url(#_Linear7);"/>
                    </g>
                    <g transform="matrix(0.2,0,0,0.2,3063.2,603.223)">
                        <path d="M3989.42,766L3989.42,816C3989.42,821.753 3984.75,826.417 3979,826.417L3929,826.417C3923.25,826.417 3918.58,821.753 3918.58,816L3918.58,766C3918.58,760.247 3923.25,755.583 3929,755.583L3979,755.583C3984.75,755.583 3989.42,760.247 3989.42,766ZM3968.58,776.417L3939.42,776.417L3939.42,805.583L3968.58,805.583L3968.58,776.417Z" style="fill:url(#_Linear8);"/>
                    </g>
                    <g transform="matrix(0.2,0,0,0.2,3083.2,603.223)">
                        <path d="M3989.42,766L3989.42,816C3989.42,821.753 3984.75,826.417 3979,826.417L3929,826.417C3923.25,826.417 3918.58,821.753 3918.58,816L3918.58,766C3918.58,760.247 3923.25,755.583 3929,755.583L3979,755.583C3984.75,755.583 3989.42,760.247 3989.42,766ZM3968.58,776.417L3939.42,776.417L3939.42,805.583L3968.58,805.583L3968.58,776.417Z" style="fill:url(#_Linear9);"/>
                    </g>
                    <g transform="matrix(1,0,0,1,0,0.423245)">
                        <path d="M3847.53,714.527C3848.34,713.714 3849.66,713.714 3850.47,714.527C3851.29,715.34 3851.29,716.66 3850.47,717.473L3840.47,727.473C3839.66,728.286 3838.34,728.286 3837.53,727.473C3836.71,726.66 3836.71,725.34 3837.53,724.527L3847.53,714.527Z" style="fill:url(#_Linear10);"/>
                    </g>
                    <g transform="matrix(1,0,0,1,0,0.423245)">
                        <path d="M3847.53,724.527C3848.34,723.714 3849.66,723.714 3850.47,724.527C3851.29,725.34 3851.29,726.66 3850.47,727.473L3840.47,737.473C3839.66,738.286 3838.34,738.286 3837.53,737.473C3836.71,736.66 3836.71,735.34 3837.53,734.527L3847.53,724.527Z" style="fill:url(#_Linear11);"/>
                    </g>
                    <g transform="matrix(1,0,0,1,0,0.423245)">
                        <path d="M3867.53,724.527C3868.34,723.714 3869.66,723.714 3870.47,724.527C3871.29,725.34 3871.29,726.66 3870.47,727.473L3860.47,737.473C3859.66,738.286 3858.34,738.286 3857.53,737.473C3856.71,736.66 3856.71,735.34 3857.53,734.527L3867.53,724.527Z" style="fill:url(#_Linear12);"/>
                    </g>
                    <g transform="matrix(1,0,0,1,0,0.423245)">
                        <path d="M3857.53,724.527C3858.34,723.714 3859.66,723.714 3860.47,724.527C3861.29,725.34 3861.29,726.66 3860.47,727.473L3850.47,737.473C3849.66,738.286 3848.34,738.286 3847.53,737.473C3846.71,736.66 3846.71,735.34 3847.53,734.527L3857.53,724.527Z" style="fill:url(#_Linear13);"/>
                    </g>
                    <g transform="matrix(1,0,0,1,0,0.423245)">
                        <path d="M3877.53,724.527C3878.34,723.714 3879.66,723.714 3880.47,724.527C3881.29,725.34 3881.29,726.66 3880.47,727.473L3850.47,757.473C3849.66,758.286 3848.34,758.286 3847.53,757.473C3846.71,756.66 3846.71,755.34 3847.53,754.527L3877.53,724.527Z" style="fill:url(#_Linear14);"/>
                    </g>
                    <g transform="matrix(1,0,0,1,0,0.423245)">
                        <path d="M3867.53,744.527C3868.34,743.714 3869.66,743.714 3870.47,744.527C3871.29,745.34 3871.29,746.66 3870.47,747.473L3860.47,757.473C3859.66,758.286 3858.34,758.286 3857.53,757.473C3856.71,756.66 3856.71,755.34 3857.53,754.527L3867.53,744.527Z" style="fill:url(#_Linear15);"/>
                    </g>
                    <g transform="matrix(1,0,0,1,0,0.423245)">
                        <path d="M3867.53,754.527C3868.34,753.714 3869.66,753.714 3870.47,754.527C3871.29,755.34 3871.29,756.66 3870.47,757.473L3860.47,767.473C3859.66,768.286 3858.34,768.286 3857.53,767.473C3856.71,766.66 3856.71,765.34 3857.53,764.527L3867.53,754.527Z" style="fill:url(#_Linear16);"/>
                    </g>
                    <g transform="matrix(1,0,0,1,0,0.423245)">
                        <path d="M3847.53,744.527C3848.34,743.714 3849.66,743.714 3850.47,744.527C3851.29,745.34 3851.29,746.66 3850.47,747.473L3840.47,757.473C3839.66,758.286 3838.34,758.286 3837.53,757.473C3836.71,756.66 3836.71,755.34 3837.53,754.527L3847.53,744.527Z" style="fill:url(#_Linear17);"/>
                    </g>
                </g>
                <g transform="matrix(0.780238,0,0,0.387184,14951.2,1355.69)">
                    <path d="M267.363,692.674L307.848,692.674L307.848,706.355L267.363,706.355L267.363,692.674ZM269.736,725.9L314.13,725.9L314.13,740L252.146,740L252.146,660.146L312.594,660.146L312.594,674.386L269.736,674.386L269.736,725.9Z" style="fill-rule:nonzero;"/>
                    <path d="M369.553,741.396C361.177,741.396 353.685,739.604 347.077,736.021C340.469,732.438 335.257,727.529 331.441,721.293C327.625,715.057 325.717,707.984 325.717,700.073C325.717,692.162 327.625,685.112 331.441,678.923C335.257,672.734 340.469,667.848 347.077,664.264C353.685,660.681 361.177,658.89 369.553,658.89C376.813,658.89 383.165,659.983 388.609,662.17C394.054,664.358 398.684,667.778 402.5,672.431L391.052,683.321C388.26,680.063 385.096,677.667 381.559,676.131C378.022,674.595 374.207,673.827 370.112,673.827C364.993,673.827 360.409,674.944 356.36,677.178C352.312,679.412 349.148,682.506 346.867,686.462C344.587,690.417 343.447,694.954 343.447,700.073C343.447,705.192 344.587,709.752 346.867,713.754C349.148,717.756 352.312,720.874 356.36,723.108C360.409,725.342 364.993,726.458 370.112,726.458C374.207,726.458 378.022,725.667 381.559,724.085C385.096,722.503 388.26,720.083 391.052,716.826L402.5,727.854C398.684,732.415 394.03,735.812 388.539,738.046C383.048,740.279 376.719,741.396 369.553,741.396Z" style="fill-rule:nonzero;"/>
                    <path d="M418.415,740L418.415,660.146L436.005,660.146L436.005,692.255L474.396,692.255L474.396,660.146L491.986,660.146L491.986,740L474.396,740L474.396,706.774L436.005,706.774L436.005,740L418.415,740Z" style="fill-rule:nonzero;"/>
                    <path d="M553.831,741.396C545.362,741.396 537.8,739.604 531.145,736.021C524.491,732.438 519.256,727.529 515.44,721.293C511.624,715.057 509.716,707.984 509.716,700.073C509.716,692.162 511.624,685.112 515.44,678.923C519.256,672.734 524.491,667.848 531.145,664.264C537.8,660.681 545.315,658.89 553.692,658.89C562.161,658.89 569.723,660.681 576.377,664.264C583.032,667.848 588.267,672.734 592.083,678.923C595.899,685.112 597.807,692.162 597.807,700.073C597.807,707.984 595.899,715.057 592.083,721.293C588.267,727.529 583.032,732.438 576.377,736.021C569.723,739.604 562.207,741.396 553.831,741.396ZM553.692,726.458C558.81,726.458 563.348,725.318 567.303,723.038C571.259,720.758 574.353,717.617 576.587,713.615C578.82,709.613 579.937,705.099 579.937,700.073C579.937,694.954 578.797,690.417 576.517,686.462C574.237,682.506 571.142,679.412 567.233,677.178C563.324,674.944 558.857,673.827 553.831,673.827C548.805,673.827 544.292,674.944 540.29,677.178C536.288,679.412 533.146,682.506 530.866,686.462C528.586,690.417 527.446,694.954 527.446,700.073C527.446,705.099 528.586,709.613 530.866,713.615C533.146,717.617 536.288,720.758 540.29,723.038C544.292,725.318 548.759,726.458 553.692,726.458Z" style="fill-rule:nonzero;"/>
                    <path d="M615.397,740L615.397,660.146L630.474,660.146L664.398,715.988L657.278,715.988L690.644,660.146L705.721,660.146L705.861,740L689.108,740L688.969,686.531L691.621,686.531L664.538,731.065L656.58,731.065L628.659,686.531L632.149,686.531L632.149,740L615.397,740Z" style="fill-rule:nonzero;"/>
                    <rect x="730.152" y="660.146" width="17.59" height="79.854" style="fill-rule:nonzero;"/>
                    <path d="M761.004,740L796.185,693.232L796.185,705.518L762.54,660.146L782.364,660.146L805.678,692.116L797.302,692.116L820.616,660.146L840.16,660.146L806.795,704.68L806.795,693.372L841.696,740L821.314,740L797.302,706.495L805.399,706.355L781.108,740L761.004,740Z" style="fill-rule:nonzero;"/>
                </g>
            </g>
        </g>
    </g>
    <defs>
        <linearGradient id="_Linear1" x1="0" y1="0" x2="1" y2="0" gradientUnits="userSpaceOnUse" gradientTransform="matrix(320.121,0,0,320.121,3887.11,891)"><stop offset="0" style="stop-color:rgb(157,141,241);stop-opacity:1"/><stop offset="0.52" style="stop-color:rgb(127,167,228);stop-opacity:1"/><stop offset="1" style="stop-color:rgb(28,254,186);stop-opacity:1"/></linearGradient>
        <linearGradient id="_Linear2" x1="0" y1="0" x2="1" y2="0" gradientUnits="userSpaceOnUse" gradientTransform="matrix(320.121,0,0,320.121,3787.11,891)"><stop offset="0" style="stop-color:rgb(157,141,241);stop-opacity:1"/><stop offset="0.52" style="stop-color:rgb(127,167,228);stop-opacity:1"/><stop offset="1" style="stop-color:rgb(28,254,186);stop-opacity:1"/></linearGradient>
        <linearGradient id="_Linear3" x1="0" y1="0" x2="1" y2="0" gradientUnits="userSpaceOnUse" gradientTransform="matrix(320.121,0,0,320.121,3687.11,891)"><stop offset="0" style="stop-color:rgb(157,141,241);stop-opacity:1"/><stop offset="0.52" style="stop-color:rgb(127,167,228);stop-opacity:1"/><stop offset="1" style="stop-color:rgb(28,254,186);stop-opacity:1"/></linearGradient>
        <linearGradient id="_Linear4" x1="0" y1="0" x2="1" y2="0" gradientUnits="userSpaceOnUse" gradientTransform="matrix(320.121,0,0,320.121,3887.11,791)"><stop offset="0" style="stop-color:rgb(157,141,241);stop-opacity:1"/><stop offset="0.52" style="stop-color:rgb(127,167,228);stop-opacity:1"/><stop offset="1" style="stop-color:rgb(28,254,186);stop-opacity:1"/></linearGradient>
        <linearGradient id="_Linear5" x1="0" y1="0" x2="1" y2="0" gradientUnits="userSpaceOnUse" gradientTransform="matrix(320.121,0,0,320.121,3787.11,791)"><stop offset="0" style="stop-color:rgb(157,141,241);stop-opacity:1"/><stop offset="0.52" style="stop-color:rgb(127,167,228);stop-opacity:1"/><stop offset="1" style="stop-color:rgb(28,254,186);stop-opacity:1"/></linearGradient>
        <linearGradient id="_Linear6" x1="0" y1="0" x2="1" y2="0" gradientUnits="userSpaceOnUse" gradientTransform="matrix(320.121,0,0,320.121,3687.11,791)"><stop offset="0" style="stop-color:rgb(157,141,241);stop-opacity:1"/><stop offset="0.52" style="stop-color:rgb(127,167,228);stop-opacity:1"/><stop offset="1" style="stop-color:rgb(28,254,186);stop-opacity:1"/></linearGradient>
        <linearGradient id="_Linear7" x1="0" y1="0" x2="1" y2="0" gradientUnits="userSpaceOnUse" gradientTransform="matrix(320.121,0,0,320.121,3887.11,691)"><stop offset="0" style="stop-color:rgb(157,141,241);stop-opacity:1"/><stop offset="0.52" style="stop-color:rgb(127,167,228);stop-opacity:1"/><stop offset="1" style="stop-color:rgb(28,254,186);stop-opacity:1"/></linearGradient>
        <linearGradient id="_Linear8" x1="0" y1="0" x2="1" y2="0" gradientUnits="userSpaceOnUse" gradientTransform="matrix(320.121,0,0,320.121,3787.11,691)"><stop offset="0" style="stop-color:rgb(157,141,241);stop-opacity:1"/><stop offset="0.52" style="stop-color:rgb(127,167,228);stop-opacity:1"/><stop offset="1" style="stop-color:rgb(28,254,186);stop-opacity:1"/></linearGradient>
        <linearGradient id="_Linear9" x1="0" y1="0" x2="1" y2="0" gradientUnits="userSpaceOnUse" gradientTransform="matrix(320.121,0,0,320.121,3687.11,691)"><stop offset="0" style="stop-color:rgb(157,141,241);stop-opacity:1"/><stop offset="0.52" style="stop-color:rgb(127,167,228);stop-opacity:1"/><stop offset="1" style="stop-color:rgb(28,254,186);stop-opacity:1"/></linearGradient>
        <linearGradient id="_Linear10" x1="0" y1="0" x2="1" y2="0" gradientUnits="userSpaceOnUse" gradientTransform="matrix(64.0242,0,0,64.0242,3820.62,741)"><stop offset="0" style="stop-color:rgb(157,141,241);stop-opacity:1"/><stop offset="0.52" style="stop-color:rgb(127,167,228);stop-opacity:1"/><stop offset="1" style="stop-color:rgb(28,254,186);stop-opacity:1"/></linearGradient>
        <linearGradient id="_Linear11" x1="0" y1="0" x2="1" y2="0" gradientUnits="userSpaceOnUse" gradientTransform="matrix(64.0242,0,0,64.0242,3820.62,741)"><stop offset="0" style="stop-color:rgb(157,141,241);stop-opacity:1"/><stop offset="0.52" style="stop-color:rgb(127,167,228);stop-opacity:1"/><stop offset="1" style="stop-color:rgb(28,254,186);stop-opacity:1"/></linearGradient>
        <linearGradient id="_Linear12" x1="0" y1="0" x2="1" y2="0" gradientUnits="userSpaceOnUse" gradientTransform="matrix(64.0242,0,0,64.0242,3820.62,741)"><stop offset="0" style="stop-color:rgb(157,141,241);stop-opacity:1"/><stop offset="0.52" style="stop-color:rgb(127,167,228);stop-opacity:1"/><stop offset="1" style="stop-color:rgb(28,254,186);stop-opacity:1"/></linearGradient>
        <linearGradient id="_Linear13" x1="0" y1="0" x2="1" y2="0" gradientUnits="userSpaceOnUse" gradientTransform="matrix(64.0242,0,0,64.0242,3820.62,741)"><stop offset="0" style="stop-color:rgb(157,141,241);stop-opacity:1"/><stop offset="0.52" style="stop-color:rgb(127,167,228);stop-opacity:1"/><stop offset="1" style="stop-color:rgb(28,254,186);stop-opacity:1"/></linearGradient>
        <linearGradient id="_Linear14" x1="0" y1="0" x2="1" y2="0" gradientUnits="userSpaceOnUse" gradientTransform="matrix(64.0242,0,0,64.0242,3820.62,741)"><stop offset="0" style="stop-color:rgb(157,141,241);stop-opacity:1"/><stop offset="0.52" style="stop-color:rgb(127,167,228);stop-opacity:1"/><stop offset="1" style="stop-color:rgb(28,254,186);stop-opacity:1"/></linearGradient>
        <linearGradient id="_Linear15" x1="0" y1="0" x2="1" y2="0" gradientUnits="userSpaceOnUse" gradientTransform="matrix(64.0242,0,0,64.0242,3820.62,741)"><stop offset="0" style="stop-color:rgb(157,141,241);stop-opacity:1"/><stop offset="0.52" style="stop-color:rgb(127,167,228);stop-opacity:1"/><stop offset="1" style="stop-color:rgb(28,254,186);stop-opacity:1"/></linearGradient>
        <linearGradient id="_Linear16" x1="0" y1="0" x2="1" y2="0" gradientUnits="userSpaceOnUse" gradientTransform="matrix(64.0242,0,0,64.0242,3820.62,741)"><stop offset="0" style="stop-color:rgb(157,141,241);stop-opacity:1"/><stop offset="0.52" style="stop-color:rgb(127,167,228);stop-opacity:1"/><stop offset="1" style="stop-color:rgb(28,254,186);stop-opacity:1"/></linearGradient>
        <linearGradient id="_Linear17" x1="0" y1="0" x2="1" y2="0" gradientUnits="userSpaceOnUse" gradientTransform="matrix(64.0242,0,0,64.0242,3820.62,741)"><stop offset="0" style="stop-color:rgb(157,141,241);stop-opacity:1"/><stop offset="0.52" style="stop-color:rgb(127,167,228);stop-opacity:1"/><stop offset="1" style="stop-color:rgb(28,254,186);stop-opacity:1"/></linearGradient>
    </defs>
</svg>
