<?xml version="1.0" encoding="UTF-8"?>
<svg version="1.1" xmlns="http://www.w3.org/2000/svg" width="512" height="512">
<path d="M0 0 C1.01790619 0.00215515 2.03581238 0.0043103 3.08456421 0.00653076 C17.69363523 0.05620146 32.02575853 0.30709809 46.375 3.3125 C47.34985352 3.51117676 48.32470703 3.70985352 49.32910156 3.91455078 C88.37782454 12.08284366 124.83813271 27.70153311 156.375 52.3125 C157.27089844 52.99699219 158.16679687 53.68148437 159.08984375 54.38671875 C174.64561709 66.50203669 189.29582193 80.73146847 201.375 96.3125 C202.14972656 97.27027344 202.92445313 98.22804688 203.72265625 99.21484375 C238.26056965 142.61986011 256.81394766 197.76289597 256.69067383 253.03979492 C256.6875221 255.97938487 256.71104926 258.9179558 256.73632812 261.85742188 C256.78098737 275.23056192 255.57551542 288.12666711 253.375 301.3125 C253.09281616 303.01805054 253.09281616 303.01805054 252.80493164 304.75805664 C245.77946967 343.86954746 228.79665906 381.05202178 204.375 412.3125 C203.61574219 413.28445313 202.85648437 414.25640625 202.07421875 415.2578125 C189.73986402 430.63741644 175.93895499 445.19015196 160.375 457.3125 C159.43914062 458.07691406 158.50328125 458.84132813 157.5390625 459.62890625 C125.58628299 485.2157721 86.41988322 501.72551276 46.375 509.3125 C45.56562988 509.47621094 44.75625977 509.63992188 43.92236328 509.80859375 C13.88110013 515.67977137 -20.7615176 514.58512909 -50.625 508.3125 C-52.14794678 507.99901611 -52.14794678 507.99901611 -53.70166016 507.67919922 C-90.84546555 499.78695344 -125.70945445 483.68345578 -155.625 460.3125 C-156.59695312 459.55324219 -157.56890625 458.79398437 -158.5703125 458.01171875 C-173.94991644 445.67736402 -188.50265196 431.87645499 -200.625 416.3125 C-201.77162109 414.90871094 -201.77162109 414.90871094 -202.94140625 413.4765625 C-228.5282721 381.52378299 -245.03801276 342.35738322 -252.625 302.3125 C-252.78871094 301.50312988 -252.95242187 300.69375977 -253.12109375 299.85986328 C-258.59069558 271.87335724 -258.46977511 238.21828161 -252.625 210.3125 C-252.42632324 209.33764648 -252.22764648 208.36279297 -252.02294922 207.35839844 C-241.93598313 159.13741149 -219.89911449 114.53770064 -185.40722656 79.14160156 C-183.63301167 77.32072238 -181.87518486 75.48496071 -180.1171875 73.6484375 C-173.01832106 66.31138736 -165.60682072 59.74213624 -157.41796875 53.64794922 C-155.58092428 52.27967127 -153.75911069 50.89264471 -151.9375 49.50390625 C-143.51077324 43.13790222 -134.81596417 37.50688619 -125.625 32.3125 C-124.99464844 31.94946777 -124.36429688 31.58643555 -123.71484375 31.21240234 C-85.96656579 9.60246645 -43.19754839 -0.16448837 0 0 Z M-155.625 96.3125 C-156.12241699 96.78268555 -156.61983398 97.25287109 -157.13232422 97.73730469 C-165.13838763 105.33444934 -172.03249721 113.47194153 -178.625 122.3125 C-179.05022949 122.87163086 -179.47545898 123.43076172 -179.91357422 124.00683594 C-187.16970107 133.56450244 -193.10360829 143.66807576 -198.625 154.3125 C-199.01574707 155.06128418 -199.40649414 155.81006836 -199.80908203 156.58154297 C-215.67172991 187.3682599 -223.08020261 221.12664341 -223 255.625 C-222.99912384 256.54836151 -222.99824768 257.47172302 -222.99734497 258.42306519 C-222.81378459 317.25448491 -199.15704805 371.11475135 -158.625 413.3125 C-157.7690625 414.2096875 -156.913125 415.106875 -156.03125 416.03125 C-150.26417803 421.9443238 -144.1837581 427.29642238 -137.625 432.3125 C-136.98030762 432.8065332 -136.33561523 433.30056641 -135.67138672 433.80957031 C-124.83901324 442.03586549 -113.72845013 449.11374313 -101.625 455.3125 C-100.8820166 455.69889648 -100.1390332 456.08529297 -99.37353516 456.48339844 C-47.31468466 483.31692993 13.98450289 486.84888824 69.49414062 469.26123047 C102.96928428 458.23712808 132.08101384 439.60803934 157.375 415.3125 C158.72078125 414.02859375 158.72078125 414.02859375 160.09375 412.71875 C166.01226517 406.94637101 171.31283335 400.84514578 176.375 394.3125 C176.79894043 393.77028809 177.22288086 393.22807617 177.65966797 392.66943359 C208.01011115 353.60307944 223.86836364 305.74996348 223.75 256.4375 C223.74912384 255.5403125 223.74824768 254.643125 223.74734497 253.71875 C223.55922394 195.06143939 199.70451388 141.38198287 159.375 99.3125 C158.48039062 98.36503906 157.58578125 97.41757813 156.6640625 96.44140625 C149.75998731 89.30449568 142.30488392 83.24414885 134.375 77.3125 C133.81441895 76.88582031 133.25383789 76.45914063 132.67626953 76.01953125 C123.12016384 68.76526124 113.01727007 62.83277431 102.375 57.3125 C101.62621582 56.92175293 100.87743164 56.53100586 100.10595703 56.12841797 C16.70694409 13.15764006 -86.89826482 30.68228687 -155.625 96.3125 Z " fill="#000000" transform="translate(255.625,-0.3125)"/>
<path d="M0 0 C4.07733699 3.00343453 7.21919777 6.52868707 8.82421875 11.34375 C8.92763949 13.2387089 8.97222136 15.13708357 8.98484802 17.03482056 C8.99489365 18.22074799 9.00493927 19.40667542 9.01528931 20.62854004 C9.0211203 21.93141968 9.02695129 23.23429932 9.03295898 24.57666016 C9.04249909 25.96149939 9.05239032 27.34633624 9.06260681 28.73117065 C9.09398051 33.28168921 9.1142606 37.83222595 9.1328125 42.3828125 C9.13775848 43.5451457 9.13775848 43.5451457 9.14280438 44.73096037 C9.17359001 52.04306929 9.2002901 59.35518241 9.21722317 66.66733742 C9.23911326 76.00967754 9.28104921 85.35144174 9.35066074 94.69355166 C9.39797771 101.26779276 9.42216711 107.84187892 9.42942005 114.41628492 C9.43436568 118.33981975 9.44934059 122.26270534 9.48916435 126.18605423 C9.52618029 129.88154317 9.53439257 133.57601616 9.52115822 137.27165604 C9.5212374 139.2631363 9.55099281 141.25454735 9.58184814 143.24578857 C9.51808047 151.15887697 8.32910406 156.46687402 2.82421875 162.34375 C-1.77326193 166.28720085 -7.22769425 167.59283237 -13.17578125 167.34375 C-19.34243372 166.19196202 -23.81231104 163.81111236 -28.17578125 159.34375 C-30.63581067 155.16164421 -31.55144238 152.10673954 -31.55673218 147.27172852 C-31.56519165 146.07734161 -31.57365112 144.88295471 -31.58236694 143.65237427 C-31.57629425 142.35556732 -31.57022156 141.05876038 -31.56396484 139.72265625 C-31.56803337 138.33250517 -31.57337684 136.94235733 -31.57989502 135.55221558 C-31.59354109 131.7877442 -31.58828129 128.0235202 -31.57875776 124.25904465 C-31.57114707 120.31404722 -31.57821069 116.36907055 -31.58291626 112.42407227 C-31.58836971 105.79992888 -31.581193 99.17588594 -31.56689453 92.55175781 C-31.55056876 84.90020861 -31.55585756 77.24889924 -31.57237375 69.59735584 C-31.58600034 63.02052925 -31.58790256 56.44377474 -31.58005774 49.86693859 C-31.57538766 45.94210569 -31.57473802 42.01738542 -31.58466721 38.09255981 C-31.59335172 34.40213961 -31.58728815 30.71202777 -31.56998444 27.02164078 C-31.56414424 25.02614004 -31.57302247 23.03061314 -31.58236694 21.03512573 C-31.57390747 19.84073883 -31.565448 18.64635193 -31.55673218 17.41577148 C-31.5556011 16.38193832 -31.55447002 15.34810516 -31.55330467 14.28294373 C-30.7544508 8.06349839 -27.6428465 4.35085795 -22.921875 0.6015625 C-16.06896252 -4.33498743 -7.24212779 -4.11317602 0 0 Z " fill="#000000" transform="translate(267.17578125,216.65625)"/>
<path d="M0 0 C5.44509256 4.82476556 8.65309442 10.2054526 9.31640625 17.4609375 C9.62343639 27.38494409 8.54531038 34.37509319 1.8125 41.8125 C-5.22683445 48.19839412 -12.13055311 49.762524 -21.56640625 49.4375 C-30.338561 48.3197738 -35.72263855 43.88943658 -41.40625 37.37890625 C-46.12585549 30.33420099 -45.81199432 22.16223453 -45 14 C-42.96472679 7.04917855 -39.06981102 1.91684387 -33 -2 C-22.06986585 -7.93216682 -10.2087206 -6.94909402 0 0 Z " fill="#000000" transform="translate(274,141)"/>
</svg>
