<?xml version="1.0" encoding="UTF-8"?>
<svg version="1.1" xmlns="http://www.w3.org/2000/svg" width="512" height="512">
<path d="M0 0 C7.07534346 2.40949551 13.95522226 5.20052862 20.75 8.3125 C21.53342773 8.6640918 22.31685547 9.01568359 23.12402344 9.37792969 C27.99258427 11.71046939 31.47563186 13.94439804 34.25 18.75 C34.44226074 21.48927307 34.44226074 21.48927307 34.37304688 24.46313477 C34.34639954 25.94838402 34.34639954 25.94838402 34.31921387 27.46363831 C34.29637329 28.21813766 34.27353271 28.97263702 34.25 29.75 C37.3815894 30.50627621 40.51318124 31.26254228 43.64477539 32.01879883 C44.6507908 32.26174462 45.6568062 32.50469042 46.69330692 32.75499821 C52.4653251 34.1488662 58.23738084 35.54257849 64.00949097 36.93606567 C66.50559525 37.53867443 69.00169917 38.14128474 71.49780273 38.74389648 C72.77911575 39.05322994 74.06042877 39.3625634 75.38056946 39.6812706 C82.67166613 41.4415704 89.96255423 43.20273065 97.25321966 44.96481568 C104.57750806 46.73501555 111.90195877 48.50454284 119.2265625 50.2734375 C119.89001167 50.43366701 120.55346084 50.59389652 121.23701453 50.75898147 C138.2282884 54.86222749 155.22402184 58.94596373 172.23056984 62.98552132 C175.04021997 63.65319832 177.84959499 64.32201917 180.65885925 64.99131775 C181.55319325 65.20437844 182.44752726 65.41743914 183.36896229 65.63695621 C185.12215735 66.05465906 186.87534097 66.47240993 188.62851238 66.89021206 C193.594641 68.07289365 198.56257476 69.24757883 203.53201294 70.41627121 C206.57751528 71.13440815 209.6212342 71.85988783 212.66452408 72.58733749 C214.03425859 72.91311076 215.40472343 73.23583436 216.77602768 73.55493546 C234.9691642 77.79139103 250.58850536 83.58278822 261.25 99.75 C265.95507237 107.76643734 269.25 115.38487911 269.25 124.75 C269.95680908 124.514021 270.66361816 124.27804199 271.3918457 124.03491211 C353.54277992 96.75263115 353.54277992 96.75263115 388.37109375 112.2421875 C401.88250255 119.31871911 412.15427575 129.78781411 418.25 143.75 C419.06287347 147.2975114 419.47043607 150.2869352 418.25 153.75 C414.71327064 158.03130396 410.57444986 160.47559193 405.6875 162.9375 C404.88650879 163.34911377 404.08551758 163.76072754 403.26025391 164.18481445 C400.26251111 165.71791782 397.25600942 167.23317002 394.25 168.75 C392.95659765 169.40832232 391.66348088 170.06720593 390.37060547 170.7265625 C369.55301482 181.33676208 348.5574542 191.42898442 327.19226074 200.88793945 C325.29185439 201.73142318 323.39405452 202.58049196 321.49707031 203.43164062 C234.56490932 242.4039338 167.1855868 252.84676945 76.71453857 218.79571533 C48.79528031 208.15212951 21.34018305 196.34706228 -5.75 183.75 C-5.862229 184.5330249 -5.97445801 185.3160498 -6.09008789 186.12280273 C-6.94161635 191.84006323 -7.77277741 196.31823768 -11.75 200.75 C-15.73914874 202.79874303 -19.12430861 203.00757452 -23.57226562 203.0246582 C-24.23796066 203.02976913 -24.9036557 203.03488007 -25.58952332 203.04014587 C-27.77852498 203.05398665 -29.96720992 203.05308961 -32.15625 203.05078125 C-33.6841239 203.05467068 -35.21199673 203.05900586 -36.73986816 203.06376648 C-39.93745433 203.0712164 -43.13493005 203.07094596 -46.33251953 203.06567383 C-50.42484038 203.05987489 -54.51670926 203.07682603 -58.60895538 203.1000185 C-61.76257966 203.11476647 -64.91609527 203.11562622 -68.06974792 203.11250877 C-69.57839352 203.11302126 -71.08704531 203.11824537 -72.59565735 203.12832069 C-74.70664692 203.14069158 -76.81675831 203.13389103 -78.92773438 203.12231445 C-80.12732788 203.12294388 -81.32692139 203.1235733 -82.56286621 203.1242218 C-86.09911427 202.70900826 -87.90276288 201.84563523 -90.75 199.75 C-91.28363946 199.38558902 -91.81727892 199.02117804 -92.36708927 198.6457243 C-94.56738646 195.62950874 -94.16559328 192.34814376 -94.13768005 188.75418091 C-94.14306559 187.93026789 -94.14845113 187.10635486 -94.15399987 186.25747478 C-94.16834832 183.48676642 -94.16115883 180.7165312 -94.15405273 177.94580078 C-94.15975276 175.96334446 -94.16671558 173.98089143 -94.17485046 171.9984436 C-94.19283896 166.60584846 -94.19160266 161.21341553 -94.18590808 155.82079935 C-94.18282403 151.32266399 -94.18890002 146.82456014 -94.19494683 142.32642925 C-94.20900952 131.71580263 -94.20741664 121.10525649 -94.19604492 110.49462891 C-94.18456526 99.54111147 -94.19863295 88.58783891 -94.2254414 77.63435376 C-94.24758119 68.23724773 -94.25423955 58.84021867 -94.24836498 49.44308841 C-94.24498969 43.82750964 -94.24744829 38.21208781 -94.26461601 32.59653091 C-94.28005532 27.31547796 -94.27616302 22.03478829 -94.25731087 16.75374985 C-94.25361645 14.81432923 -94.25675818 12.87488188 -94.26719666 10.93548584 C-94.28035022 8.28983096 -94.26890947 5.64538864 -94.25120544 2.99978638 C-94.26081045 2.23042539 -94.27041546 1.4610644 -94.28031152 0.66838944 C-94.21245862 -4.25243286 -93.2750623 -6.80371052 -89.75 -10.25 C-67.96445234 -21.14277383 -21.69684637 -7.0589055 0 0 Z M-71.75 10.75 C-71.75 66.85 -71.75 122.95 -71.75 180.75 C-57.23 180.75 -42.71 180.75 -27.75 180.75 C-22.61649959 160.97352064 -17.5129508 141.1895193 -12.43068695 121.39981842 C-11.72459879 118.65111668 -11.01800714 115.90254472 -10.31134033 113.1539917 C-7.51398257 102.27139976 -4.72474276 91.38678622 -1.95065689 80.49823666 C-0.69384588 75.56561385 0.56617912 70.63386497 1.83404541 65.70407104 C3.0399004 61.0146183 4.23665072 56.32293463 5.42656136 51.6294117 C5.87061251 49.88440894 6.31792491 48.14023253 6.76864433 46.39694023 C7.38719037 44.00227669 7.99397857 41.60492954 8.59790039 39.20654297 C8.78210855 38.50468589 8.96631672 37.80282881 9.15610695 37.07970333 C10.40978154 32.33668725 10.40978154 32.33668725 9.25 27.75 C6.51773638 26.3931616 3.99349432 25.35659013 1.125 24.375 C0.28187256 24.07754883 -0.56125488 23.78009766 -1.42993164 23.47363281 C-14.9712547 18.82270298 -28.84693626 15.1441984 -43 12.9375 C-43.70568115 12.82567383 -44.4113623 12.71384766 -45.13842773 12.59863281 C-53.98585021 11.36360405 -62.78606412 11.2217861 -71.75 10.75 Z M28.25 51.75 C25.14676363 60.42091716 22.99276072 69.31938018 20.7578125 78.2421875 C20.3259999 79.95508925 19.89385449 81.66790714 19.46139526 83.38064575 C18.32605068 87.88032417 17.19461957 92.38097684 16.06420898 96.88189697 C14.26386446 104.04740209 12.45737208 111.21135991 10.65121078 118.37540054 C10.02928196 120.8444539 9.40891202 123.31389429 8.78884888 125.78341675 C8.39472773 127.35028439 8.00043306 128.91710839 7.60595703 130.48388672 C7.41607775 131.23888899 7.22619846 131.99389126 7.03056526 132.77177238 C5.9951072 136.86932829 4.93329567 140.9585734 3.84173584 145.04156494 C3.6098097 145.91081667 3.37788357 146.7800684 3.13892937 147.67566109 C2.6912558 149.34759492 2.24031345 151.01865795 1.78564644 152.68870354 C0.9551243 155.78866472 0.25 158.52529457 0.25 161.75 C51.56827653 185.52828367 104.66668524 209.04940059 160.25 220.75 C161.48105469 221.01554688 162.71210938 221.28109375 163.98046875 221.5546875 C227.27690005 233.26733512 304.42556917 187.63912599 359.5995636 160.51539612 C366.86318042 156.94841922 374.17228849 153.47782745 381.48950195 150.0222168 C382.77473755 149.41180542 382.77473755 149.41180542 384.0859375 148.7890625 C384.82376465 148.44053223 385.5615918 148.09200195 386.32177734 147.73291016 C388.48524665 146.67717928 388.48524665 146.67717928 391.25 144.75 C387.93477163 137.37401344 381.34412169 133.84062922 374.1328125 130.78515625 C343.82569446 119.90251901 307.31879833 136.11734231 278.42907715 145.17758179 C264.15065605 149.64614227 249.90904584 153.6994356 235.25 156.75 C234.10273438 157.01167969 232.95546875 157.27335937 231.7734375 157.54296875 C195.48666536 164.67585668 155.7404745 153.1077657 121.25 142.75 C120.33669922 142.47623535 119.42339844 142.2024707 118.48242188 141.92041016 C115.96089506 141.15365448 113.4479297 140.36476231 110.9375 139.5625 C110.20845459 139.33691406 109.47940918 139.11132812 108.72827148 138.87890625 C104.67271579 137.53600055 101.79668912 136.24369915 99.25 132.75 C98.10579656 127.8969992 98.57140322 123.88099464 101.125 119.625 C106.14998855 116.61000687 111.32873815 117.05408489 116.95556641 118.39453125 C119.87078432 119.30376101 122.74643923 120.29323676 125.625 121.3125 C164.45365117 134.34564905 207.07324751 144.48016203 247.25 131.75 C248.02585446 123.02163736 244.7367164 114.35676585 239.13642883 107.65657043 C233.01007604 101.46480592 225.09075397 98.70109277 216.80078125 96.76953125 C215.78822769 96.51927185 214.77567413 96.26901245 213.73243713 96.01116943 C210.3461821 95.1787719 206.95461435 94.37065991 203.5625 93.5625 C201.11115987 92.9654688 198.66016035 92.36703766 196.20947266 91.76733398 C190.11004866 90.27952312 184.00677977 88.80849242 177.90137482 87.34544277 C172.56201485 86.0657476 167.22420968 84.77972414 161.88720703 83.49023438 C144.42241674 79.27111388 126.95324322 75.07065844 109.48027802 70.88552856 C97.47834754 68.01022255 85.4812856 65.11543091 73.48828125 62.203125 C72.01139622 61.84466846 70.53450824 61.48622408 69.05761719 61.12779236 C62.83622024 59.61761166 56.61514376 58.10614722 50.3951807 56.59007072 C47.34068302 55.84613494 44.28551216 55.10497224 41.23046875 54.36328125 C40.13559647 54.09553894 39.04072418 53.82779663 37.91267395 53.55194092 C36.92337387 53.31219543 35.93407379 53.07244995 34.91479492 52.82543945 C34.05609299 52.61627396 33.19739105 52.40710846 32.31266785 52.19160461 C30.2756215 51.68021675 30.2756215 51.68021675 28.25 51.75 Z " fill="#000000" transform="translate(93.75,267.25)"/>
<path d="M0 0 C1.5654733 -0.00701996 1.5654733 -0.00701996 3.16257232 -0.01418173 C6.62917969 -0.02606427 10.09538678 -0.01670083 13.56199646 -0.00723267 C16.05967945 -0.01130133 18.55736065 -0.01664486 21.05503845 -0.02316284 C27.11625494 -0.03539197 33.17731668 -0.03364418 39.23852701 -0.02492492 C44.1671545 -0.01813036 49.09575079 -0.01723928 54.02438164 -0.02049637 C54.72772114 -0.02095607 55.43106063 -0.02141577 56.15571345 -0.0218894 C57.58483427 -0.02284864 59.01395508 -0.02382128 60.44307589 -0.02480717 C73.82077714 -0.0333468 87.19841656 -0.02354906 100.57610767 -0.00740607 C112.03937106 0.00599875 123.5025433 0.00366491 134.96580505 -0.01016235 C148.29948215 -0.02623838 161.63310518 -0.03252604 174.96679062 -0.02332556 C176.39014207 -0.02236998 177.81349354 -0.02142687 179.23684502 -0.02049637 C179.93704115 -0.02003354 180.63723728 -0.01957072 181.35865148 -0.01909386 C186.27833507 -0.01651026 191.19798418 -0.02086129 196.11766243 -0.02793503 C202.74565499 -0.03725622 209.37350254 -0.03056383 216.00148773 -0.01325226 C218.43064273 -0.00929308 220.85981223 -0.01041168 223.28896141 -0.01704025 C226.61096618 -0.02526797 229.93242435 -0.01491881 233.25439453 0 C234.20995462 -0.00669217 235.1655147 -0.01338433 236.15003115 -0.02027929 C250.94524662 0.10812929 262.93886884 6.35241823 273.36058044 16.55282593 C281.53677186 25.10710712 287.16911168 36.42137729 287.20071983 48.43506527 C287.20833165 49.97333867 287.20833165 49.97333867 287.21609724 51.54268831 C287.21659499 52.6676742 287.21709275 53.79266008 287.21760559 54.95173645 C287.22198784 56.14810716 287.2263701 57.34447787 287.23088515 58.57710224 C287.24194281 61.89908469 287.24849535 65.22102011 287.2530663 68.54301417 C287.25902806 72.12522305 287.27063612 75.70741462 287.28135681 79.28961182 C287.30586232 87.93912734 287.32050248 96.58864858 287.33341688 105.23818812 C287.33712928 107.68055189 287.34110244 110.12291509 287.34516954 112.56527829 C287.37039957 127.72944114 287.39245424 142.89360489 287.40489769 158.05778408 C287.4078274 161.56890809 287.41078907 165.08003207 287.4138031 168.59115601 C287.41454915 169.46383258 287.4152952 170.33650915 287.41606386 171.23563046 C287.42872753 185.38405283 287.46196595 199.53234982 287.50360493 213.68071353 C287.54599371 228.20265452 287.56958891 242.72453123 287.57481825 257.24653393 C287.57823516 265.40182706 287.59002363 273.55692399 287.62292099 281.7121563 C287.6508803 288.65458091 287.66193891 295.5967691 287.65072553 302.53924566 C287.6455288 306.08227306 287.64849041 309.624805 287.67319107 313.16776085 C287.69973067 317.00643743 287.68765807 320.84443369 287.67170715 324.68318176 C287.68558924 325.80593693 287.69947133 326.92869209 287.71377409 328.08547014 C287.63620397 335.62917936 287.63620397 335.62917936 284.65070534 339.5495615 C280.52313805 342.47154967 278.15966001 342.72643937 273.06370544 342.38095093 C268.82688961 340.55141682 266.93168379 338.57064814 265.06370544 334.38095093 C264.61714625 330.57237113 264.66539768 326.78215214 264.69189453 322.95133972 C264.68806997 321.78214373 264.6842454 320.61294773 264.68030494 319.40832156 C264.67262542 316.16655274 264.67833185 312.92512342 264.68960178 309.68337524 C264.6984559 306.18561182 264.68995172 302.68788692 264.68339539 299.19012451 C264.67423777 293.12896573 264.67556868 287.06788265 264.6835804 281.0067234 C264.69481316 272.23242011 264.68576945 263.45822464 264.67101859 254.68393072 C264.64724215 240.43376939 264.63388076 226.18362136 264.62986755 211.93344116 C264.62962269 211.08058533 264.62937782 210.22772951 264.62912553 209.34902956 C264.62658086 199.83883643 264.62601215 190.32864431 264.62705994 180.81845093 C264.62739295 177.37240601 264.62767835 173.92636109 264.62791443 170.48031616 C264.62797722 169.63001608 264.62804 168.779716 264.62810469 167.90364925 C264.62871003 153.71271797 264.61380614 139.52184804 264.58708137 125.33094233 C264.57129233 116.58221502 264.56900142 107.83368598 264.5842154 99.08495661 C264.59369567 93.0858162 264.58890147 87.08679507 264.57300157 81.08766863 C264.56432384 77.62915377 264.5621264 74.17095613 264.577528 70.71245766 C264.5909043 66.95651035 264.57968266 63.20139442 264.5625 59.44548035 C264.57230678 58.3613172 264.58211355 57.27715405 264.5922175 56.16013747 C264.4998606 46.37774173 261.89259525 38.3654673 255.13401794 31.13876343 C249.84015072 26.6439705 242.86272166 23.26355757 235.86500454 23.24672985 C235.00479968 23.24227201 234.14459481 23.23781416 233.25832313 23.23322123 C232.31281863 23.2334056 231.36731412 23.23358996 230.39315796 23.23377991 C229.38901291 23.23010322 228.38486786 23.22642653 227.35029417 23.22263843 C223.96952186 23.21158358 220.58878026 23.20775466 217.20799255 23.20394897 C214.79030764 23.19768562 212.37262369 23.19103893 209.9549408 23.18403625 C202.68726477 23.16479473 195.41959128 23.15420505 188.15189752 23.14530846 C184.72776518 23.14092408 181.30363437 23.13555757 177.87950325 23.1303196 C166.49334885 23.11330594 155.1071954 23.09881317 143.72103024 23.09157085 C140.76632626 23.08966101 137.81162228 23.08774067 134.85691833 23.08578491 C134.1225561 23.08530117 133.38819386 23.08481743 132.63157821 23.08431903 C120.74330092 23.07602404 108.85512442 23.05069675 96.9668911 23.01820423 C84.75583182 22.98510215 72.54482369 22.96711916 60.33371931 22.96392661 C53.4799837 22.96176418 46.62639498 22.95305502 39.77270317 22.92746544 C33.32210368 22.90343638 26.87169652 22.89995256 20.42105865 22.91022682 C18.0564009 22.91072226 15.69173015 22.90439952 13.3271122 22.89067078 C10.09213913 22.87294339 6.85811275 22.88006304 3.62313843 22.89320374 C2.69324897 22.88223449 1.76335952 22.87126524 0.80529159 22.8599636 C-8.70088178 22.95282103 -16.35496654 26.06942303 -23.24879456 32.58798218 C-31.48198883 41.33575109 -32.09647761 51.76794432 -32.06086731 63.16786194 C-32.06298253 64.4407663 -32.06298253 64.4407663 -32.06514049 65.7393859 C-32.06877063 68.56352812 -32.06546694 71.3876194 -32.06227112 74.21176147 C-32.06366699 76.24421223 -32.06556703 78.27666269 -32.06793213 80.30911255 C-32.07241783 84.67591778 -32.07428496 89.04271363 -32.07439423 93.4095211 C-32.07553673 100.31317391 -32.08838911 107.21677351 -32.10395813 114.1204071 C-32.10653098 115.28647655 -32.10910384 116.45254599 -32.11175466 117.65395087 C-32.11702066 120.03760215 -32.12230614 122.42125339 -32.12761068 124.80490458 C-32.16271225 140.87103346 -32.1892667 156.93709493 -32.18678284 173.00326538 C-32.18519595 183.85094041 -32.20118467 194.69843294 -32.23748946 205.54604942 C-32.25596887 211.284549 -32.26527423 217.02274372 -32.25301361 222.76126671 C-32.24160337 228.15327145 -32.25321867 233.54472897 -32.28264809 238.93666077 C-32.28930406 240.9163902 -32.28739565 242.89616948 -32.27635002 244.87587929 C-32.26253158 247.57624203 -32.27930965 250.27474333 -32.30378723 252.97499084 C-32.28675416 254.15309854 -32.28675416 254.15309854 -32.26937699 255.3550064 C-32.34074023 259.39618478 -32.76304457 261.16835583 -35.35082626 264.34382343 C-38.99383963 267.21420584 -41.21080463 267.72569399 -45.90113831 267.66610718 C-49.12665078 267.21416397 -50.74529653 265.70083119 -52.93629456 263.38095093 C-55.58227087 259.55937061 -55.21795656 255.39828082 -55.19699097 250.93234253 C-55.20272929 249.64134651 -55.20272929 249.64134651 -55.20858353 248.32426977 C-55.21891743 245.43489857 -55.21492053 242.54572594 -55.21095276 239.65634155 C-55.21529923 237.58657649 -55.22048216 235.51681305 -55.22644043 233.447052 C-55.2398542 227.8185454 -55.24040605 222.19010586 -55.23787713 216.56158638 C-55.23680821 211.86027024 -55.24168919 207.15896771 -55.24648255 202.45765448 C-55.25758771 191.35915964 -55.25801063 180.26069864 -55.25196838 169.16220093 C-55.24593798 157.72658256 -55.25821358 146.29108753 -55.27953845 134.85549021 C-55.29718281 125.03109152 -55.30315101 115.20673196 -55.29990071 105.38231802 C-55.29809094 99.51784002 -55.30069277 93.65344982 -55.31461525 87.78898621 C-55.32723364 82.26665138 -55.32521152 76.74450764 -55.31220436 71.2221756 C-55.3098471 69.20184005 -55.31254259 67.1814909 -55.32082748 65.16117096 C-55.39179187 46.5011248 -53.15684518 29.56737149 -39.74879456 15.44345093 C-28.14866584 4.66850237 -15.71685994 -0.11032894 0 0 Z " fill="#000000" transform="translate(224.93629455566406,-0.380950927734375)"/>
<path d="M0 0 C1.18357086 -0.0099852 1.18357086 -0.0099852 2.39105225 -0.02017212 C4.05511154 -0.03025795 5.71921095 -0.0349904 7.38330078 -0.03466797 C9.90076129 -0.03902595 12.41644452 -0.07534418 14.93359375 -0.11328125 C26.12748527 -0.19214521 35.57213507 0.63016625 44.140625 8.6328125 C50.38583164 15.57901172 52.97425276 22.90437772 52.96240234 32.21801758 C52.96911957 32.98472275 52.97583679 33.75142792 52.98275757 34.54136658 C53.00167329 37.06280086 53.00565857 39.58396803 53.0078125 42.10546875 C53.01424521 43.86895352 53.02097392 45.63243723 53.02798462 47.3959198 C53.03994155 51.08859734 53.04366711 54.78118143 53.04248047 58.47387695 C53.04227744 63.18800487 53.06956949 67.90152883 53.10402489 72.6155138 C53.12634652 76.25740774 53.13031639 79.89915758 53.12926102 83.5411129 C53.13160944 85.27812466 53.14038991 87.01514086 53.15592575 88.75208473 C53.29623828 106.06046215 53.29623828 106.06046215 48.671875 113.3359375 C48.20265625 114.14546875 47.7334375 114.955 47.25 115.7890625 C42.32232426 122.45591792 36.64027248 126.08255095 28.671875 128.3359375 C25.86171648 128.54426597 23.15284423 128.66350536 20.34375 128.671875 C19.16017914 128.6818602 19.16017914 128.6818602 17.95269775 128.69204712 C16.28863846 128.70213295 14.62453905 128.7068654 12.96044922 128.70654297 C10.44298871 128.71090095 7.92730548 128.74721918 5.41015625 128.78515625 C-6.37275778 128.8686857 -15.63897931 127.75403051 -24.57421875 119.32421875 C-30.99835323 112.04162532 -33.56783947 103.53063876 -33.6027832 93.90698242 C-33.60789413 93.20025894 -33.61300507 92.49353546 -33.61827087 91.76539612 C-33.63207274 89.44897791 -33.63121694 87.13286048 -33.62890625 84.81640625 C-33.63279901 83.19126782 -33.63713487 81.56613039 -33.64189148 79.94099426 C-33.64933399 76.54095151 -33.64907724 73.14101263 -33.64379883 69.7409668 C-33.63801394 65.40706864 -33.6549209 61.07359921 -33.6781435 56.73977184 C-33.69295533 53.38435932 -33.69374235 50.02904821 -33.69063377 46.67360878 C-33.69114349 45.07699041 -33.69631469 43.48036583 -33.70644569 41.88377953 C-33.77251363 30.01435695 -33.26704046 19.82930375 -25.35546875 10.37890625 C-18.06025464 3.02746699 -10.29656597 0.03067842 0 0 Z M-9.328125 26.3359375 C-11.06697706 30.58972139 -11.58366209 34.20545845 -11.6027832 38.78100586 C-11.61231522 40.03928696 -11.62184723 41.29756805 -11.63166809 42.59397888 C-11.63140663 43.95457996 -11.63046945 45.31518105 -11.62890625 46.67578125 C-11.63279827 48.08533351 -11.63713398 49.4948846 -11.64189148 50.9044342 C-11.64933314 53.85226247 -11.6490773 56.79997092 -11.64379883 59.74780273 C-11.6380053 63.51145951 -11.65494185 67.27462399 -11.6781435 71.03819942 C-11.69292787 73.94742158 -11.69374621 76.85652642 -11.69063377 79.7657795 C-11.69114458 81.15275612 -11.69633674 82.53973973 -11.70644569 83.92667961 C-12.03210394 95.51186478 -12.03210394 95.51186478 -6.53686523 105.24853516 C-3.58047543 106.70401876 -1.27891368 106.72443566 2.01171875 106.734375 C3.8534668 106.74017578 3.8534668 106.74017578 5.73242188 106.74609375 C7.01181641 106.73449219 8.29121094 106.72289062 9.609375 106.7109375 C11.52266602 106.72833984 11.52266602 106.72833984 13.47460938 106.74609375 C15.31829102 106.74029297 15.31829102 106.74029297 17.19921875 106.734375 C18.88132446 106.72929932 18.88132446 106.72929932 20.59741211 106.72412109 C24.07294486 106.28529817 25.91505242 105.4777416 28.671875 103.3359375 C31.01167072 99.82547997 30.93086593 96.68253583 30.9465332 92.53540039 C30.95164413 91.86009781 30.95675507 91.18479523 30.96202087 90.48902893 C30.97589319 88.26212644 30.97496195 86.03553425 30.97265625 83.80859375 C30.97654447 82.25687038 30.9808794 80.70514806 30.98564148 79.15342712 C30.99309859 75.90278675 30.99281612 72.65225499 30.98754883 69.40161133 C30.98175465 65.24088318 30.99868608 61.08060026 31.0218935 56.91994572 C31.03664235 53.71570751 31.03750099 50.51157624 31.03438377 47.3073101 C31.0348964 45.77354488 31.04012323 44.23977357 31.05019569 42.70604134 C31.06256565 40.55902497 31.05576605 38.41287222 31.04418945 36.26586914 C31.04481888 35.04549454 31.0454483 33.82511993 31.0460968 32.56776428 C30.63773403 29.04109174 29.7676949 27.1690868 27.671875 24.3359375 C22.69489024 20.74751589 15.57518537 21.96682245 9.734375 21.9609375 C8.45884766 21.93644531 7.18332031 21.91195312 5.86914062 21.88671875 C4.64001953 21.88285156 3.41089844 21.87898438 2.14453125 21.875 C1.02312744 21.86678223 -0.09827637 21.85856445 -1.25366211 21.85009766 C-5.09682453 22.45741071 -6.66345452 23.52038134 -9.328125 26.3359375 Z " fill="#000000" transform="translate(331.328125,63.6640625)"/>
<path d="M0 0 C0.7432402 -0.0066568 1.48648041 -0.0133136 2.25224304 -0.02017212 C3.81616769 -0.03023901 5.38013478 -0.034991 6.9440918 -0.03466797 C9.30786707 -0.03903231 11.66975825 -0.07538739 14.03320312 -0.11328125 C25.6688248 -0.20111087 34.57084157 1.26342634 43.2578125 9.4765625 C49.69931904 16.30542021 52.32006011 22.58158625 52.28637695 32.09790039 C52.29148788 32.85152359 52.29659882 33.60514679 52.30186462 34.38160706 C52.31569507 36.85735143 52.31480932 39.33281549 52.3125 41.80859375 C52.31638955 43.5368205 52.32072476 45.2650463 52.32548523 46.99327087 C52.33293261 50.60858262 52.33266621 54.22379667 52.32739258 57.83911133 C52.32158937 62.46834328 52.33855654 67.09717624 52.36173725 71.7263422 C52.37647582 75.29258047 52.37734631 78.85872255 52.37422752 82.42498589 C52.37474033 84.13179759 52.3799704 85.83861473 52.39003944 87.5453968 C52.40239386 89.93165125 52.39561946 92.31712691 52.3840332 94.70336914 C52.39167694 95.4053241 52.39932068 96.10727905 52.40719604 96.83050537 C52.36069176 101.16982547 51.62393843 103.86057761 49.01171875 107.3359375 C46.04083085 109.64662809 42.76010771 109.80681559 39.046875 109.73046875 C35.39444278 109.02241567 33.57388067 106.96059118 31.01171875 104.3359375 C29.54062189 101.39374379 29.87882027 98.77159879 29.86987305 95.48706055 C29.86639862 94.78278931 29.86292419 94.07851807 29.85934448 93.35290527 C29.85198555 91.82127868 29.8466409 90.2896414 29.84305382 88.75800133 C29.83589312 86.33262338 29.82022927 83.90744831 29.80171204 81.48213196 C29.74922652 74.58552854 29.70127132 67.68903513 29.68579102 60.79223633 C29.67570424 56.57516541 29.64636135 52.35860308 29.60447121 48.14173317 C29.59216469 46.53544781 29.58703933 44.92909059 29.58926964 43.32275963 C29.59162516 41.07228812 29.5694397 38.82327261 29.54174805 36.57299805 C29.53588181 35.29329636 29.53001556 34.01359467 29.52397156 32.69511414 C28.92334014 28.75638115 27.83498352 27.10129284 25.01171875 24.3359375 C20.04719058 22.68109478 14.89691712 23.15137571 9.69921875 23.1484375 C8.57064453 23.13619141 7.44207031 23.12394531 6.27929688 23.11132812 C5.18423828 23.10939453 4.08917969 23.10746094 2.9609375 23.10546875 C1.96408936 23.10135986 0.96724121 23.09725098 -0.05981445 23.09301758 C-3.52507235 23.38046498 -5.90389657 23.67162245 -8.98828125 25.3359375 C-11.38341532 31.4258808 -11.25476672 37.52796408 -11.2265625 44.00390625 C-11.2419682 46.05143903 -11.25827078 48.09896521 -11.27539062 50.14648438 C-11.29189236 53.34609615 -11.30073337 56.54522184 -11.29370117 59.74487305 C-11.29108544 62.85260222 -11.3191496 65.95887207 -11.3515625 69.06640625 C-11.34135574 70.02169724 -11.33114899 70.97698822 -11.32063293 71.96122742 C-11.38907375 76.60477577 -11.45791442 78.65961388 -14.40307617 82.4152832 C-18.50347238 85.46163479 -20.85194549 85.68416365 -25.98828125 85.3359375 C-30.22193387 83.50776932 -32.10246687 81.51166934 -33.98828125 77.3359375 C-34.43391389 73.71749178 -34.40851665 70.12250677 -34.38671875 66.48046875 C-34.38958893 65.42365402 -34.39245911 64.36683929 -34.39541626 63.27799988 C-34.39745555 61.04299382 -34.3919352 58.80796985 -34.37939453 56.57299805 C-34.36341945 53.17780825 -34.3792071 49.78382341 -34.3984375 46.38867188 C-34.39645349 44.2109349 -34.39260654 42.03319867 -34.38671875 39.85546875 C-34.39279144 38.85095169 -34.39886414 37.84643463 -34.40512085 36.81147766 C-34.30398465 26.50027079 -31.93660907 17.18551286 -24.98828125 9.3359375 C-17.34254052 2.72476894 -10.14137065 0.032333 0 0 Z " fill="#000000" transform="translate(331.98828125,212.6640625)"/>
<path d="M0 0 C3.40367358 0.50485111 5.15778544 1.85009633 7.44921875 4.36328125 C8.65253855 6.76992084 8.58282643 8.28543846 8.59638977 10.97395325 C8.60354507 11.94551865 8.61070038 12.91708405 8.61807251 13.91809082 C8.62210587 15.52255066 8.62210587 15.52255066 8.6262207 17.15942383 C8.6327919 18.2830986 8.6393631 19.40677338 8.64613342 20.5644989 C8.6658991 24.29560405 8.67753573 28.02666891 8.6875 31.7578125 C8.69157553 33.02951483 8.69565105 34.30121716 8.69985008 35.61145592 C8.71856977 41.6465388 8.733133 47.68159715 8.74146205 53.71670133 C8.75123414 60.68236704 8.77755232 67.64771495 8.81796294 74.61326867 C8.85176443 80.6467497 8.86360726 86.68007645 8.86766624 92.71365929 C8.87254663 95.28013961 8.88420156 97.84661618 8.90270424 100.41303444 C8.92697203 104.00193401 8.92615289 107.58999911 8.91918945 111.17895508 C8.93199951 112.24252228 8.94480957 113.30608948 8.95800781 114.40188599 C8.90694 121.60941008 8.90694 121.60941008 6.54484558 125.49980164 C2.81915596 128.81277061 -0.21994096 128.75376781 -5.06640625 128.71875 C-7.55078125 128.36328125 -7.55078125 128.36328125 -10.61328125 126.05078125 C-13.15765645 122.52148662 -13.67579183 120.02073858 -13.69122314 115.78421021 C-13.69978836 114.37528503 -13.69978836 114.37528503 -13.70852661 112.93789673 C-13.70964447 111.90925507 -13.71076233 110.8806134 -13.71191406 109.82080078 C-13.71687897 108.73599426 -13.72184387 107.65118774 -13.72695923 106.5335083 C-13.74158834 102.93769705 -13.74838378 99.3419299 -13.75390625 95.74609375 C-13.75965664 93.25129189 -13.76541439 90.75649006 -13.7711792 88.26168823 C-13.78034699 83.69700698 -13.78664674 79.13233841 -13.78967595 74.56764901 C-13.79371105 68.52077885 -13.80599746 62.47406386 -13.83203125 56.42724609 C-13.85953319 49.9398841 -13.87242213 43.45265536 -13.8743515 36.96523666 C-13.8773818 34.49087287 -13.88542294 32.01651001 -13.89853668 29.54217911 C-13.91556367 26.08281211 -13.91372497 22.62394251 -13.90722656 19.16455078 C-13.91644135 18.13995758 -13.92565613 17.11536438 -13.93515015 16.0597229 C-13.90534035 11.0018688 -13.86369669 7.46483526 -10.55078125 3.36328125 C-10.09445312 2.77417969 -9.638125 2.18507813 -9.16796875 1.578125 C-6.3341861 -0.55063443 -3.4169106 -0.09477562 0 0 Z " fill="#000000" transform="translate(439.55078125,63.63671875)"/>
<path d="M0 0 C3.40367358 0.50485111 5.15778544 1.85009633 7.44921875 4.36328125 C8.65253855 6.76992084 8.58282643 8.28543846 8.59638977 10.97395325 C8.60354507 11.94551865 8.61070038 12.91708405 8.61807251 13.91809082 C8.62210587 15.52255066 8.62210587 15.52255066 8.6262207 17.15942383 C8.6327919 18.2830986 8.6393631 19.40677338 8.64613342 20.5644989 C8.6658991 24.29560405 8.67753573 28.02666891 8.6875 31.7578125 C8.69157553 33.02951483 8.69565105 34.30121716 8.69985008 35.61145592 C8.71856977 41.6465388 8.733133 47.68159715 8.74146205 53.71670133 C8.75123414 60.68236704 8.77755232 67.64771495 8.81796294 74.61326867 C8.85176443 80.6467497 8.86360726 86.68007645 8.86766624 92.71365929 C8.87254663 95.28013961 8.88420156 97.84661618 8.90270424 100.41303444 C8.92697203 104.00193401 8.92615289 107.58999911 8.91918945 111.17895508 C8.93199951 112.24252228 8.94480957 113.30608948 8.95800781 114.40188599 C8.90694 121.60941008 8.90694 121.60941008 6.54484558 125.49980164 C2.81915596 128.81277061 -0.21994096 128.75376781 -5.06640625 128.71875 C-7.55078125 128.36328125 -7.55078125 128.36328125 -10.61328125 126.05078125 C-13.15765645 122.52148662 -13.67579183 120.02073858 -13.69122314 115.78421021 C-13.69978836 114.37528503 -13.69978836 114.37528503 -13.70852661 112.93789673 C-13.70964447 111.90925507 -13.71076233 110.8806134 -13.71191406 109.82080078 C-13.71687897 108.73599426 -13.72184387 107.65118774 -13.72695923 106.5335083 C-13.74158834 102.93769705 -13.74838378 99.3419299 -13.75390625 95.74609375 C-13.75965664 93.25129189 -13.76541439 90.75649006 -13.7711792 88.26168823 C-13.78034699 83.69700698 -13.78664674 79.13233841 -13.78967595 74.56764901 C-13.79371105 68.52077885 -13.80599746 62.47406386 -13.83203125 56.42724609 C-13.85953319 49.9398841 -13.87242213 43.45265536 -13.8743515 36.96523666 C-13.8773818 34.49087287 -13.88542294 32.01651001 -13.89853668 29.54217911 C-13.91556367 26.08281211 -13.91372497 22.62394251 -13.90722656 19.16455078 C-13.91644135 18.13995758 -13.92565613 17.11536438 -13.93515015 16.0597229 C-13.90534035 11.0018688 -13.86369669 7.46483526 -10.55078125 3.36328125 C-10.09445313 2.77417969 -9.638125 2.18507813 -9.16796875 1.578125 C-6.3341861 -0.55063443 -3.4169106 -0.09477562 0 0 Z " fill="#000000" transform="translate(247.55078125,63.63671875)"/>
<path d="M0 0 C5.5 3 5.5 3 7 6 C7.10009448 7.40764311 7.13937288 8.8198575 7.14717102 10.23103333 C7.15432632 11.11845718 7.16148163 12.00588104 7.16885376 12.92019653 C7.17288712 14.38439529 7.17288712 14.38439529 7.17700195 15.87817383 C7.18357315 16.9043129 7.19014435 17.93045197 7.19691467 18.98768616 C7.21667639 22.3941352 7.22831622 25.80054012 7.23828125 29.20703125 C7.24235678 30.36840796 7.2464323 31.52978466 7.25063133 32.7263546 C7.27150357 38.87233682 7.28580074 45.01829662 7.29516602 51.16430664 C7.30623741 57.5200008 7.34064282 63.87534552 7.38033772 70.23091602 C7.40645227 75.11135012 7.41485324 79.99170028 7.41844749 84.8721981 C7.4233262 87.21539357 7.43497645 89.55858498 7.45348549 91.90171242 C7.47776821 95.17930616 7.47693153 98.45598689 7.4699707 101.73364258 C7.48278076 102.70370239 7.49559082 103.67376221 7.50878906 104.67321777 C7.47537334 108.98447539 7.40618217 111.3459318 5.08903503 115.07719421 C1.9579738 117.95910981 -0.78020056 118.81105376 -5 119 C-9.15964795 117.9089448 -11.26420447 117.10027606 -13.67396545 113.49682617 C-15.4151573 108.90520733 -15.42780931 104.92056041 -15.40405273 100.05078125 C-15.41434761 98.57162735 -15.41434761 98.57162735 -15.42485046 97.06259155 C-15.44310865 93.81241339 -15.43928265 90.5627183 -15.43359375 87.3125 C-15.43815562 85.04858239 -15.44346121 82.78466616 -15.44947815 80.52075195 C-15.45840705 75.77972786 -15.45598807 71.03887225 -15.44604492 66.29785156 C-15.43454872 60.2248023 -15.45477835 54.15233392 -15.48396206 48.07936096 C-15.50231329 43.40560214 -15.50203382 38.73198283 -15.49632454 34.05819702 C-15.49617123 31.81911402 -15.50222339 29.58002161 -15.51461601 27.3409729 C-15.5295054 24.21001783 -15.51886371 21.08014026 -15.50170898 17.94921875 C-15.51137695 17.02644135 -15.52104492 16.10366394 -15.53100586 15.15292358 C-15.46754091 9.61694747 -14.75242985 6.35638237 -11 2 C-7.29825261 -0.4678316 -4.29506525 -0.68072732 0 0 Z " fill="#000000" transform="translate(441,213)"/>
<path d="M0 0 C5.5 3 5.5 3 7 6 C7.11117258 7.79089865 7.15921577 9.58586918 7.17700195 11.38012695 C7.18983719 12.50502029 7.20267242 13.62991364 7.21589661 14.78889465 C7.22328354 16.00969223 7.23067047 17.23048981 7.23828125 18.48828125 C7.246353 19.73876755 7.25442474 20.98925385 7.26274109 22.27763367 C7.27659195 24.92820958 7.28760536 27.57866069 7.29516602 30.22924805 C7.30622212 33.61890749 7.3406122 37.00790892 7.38033772 40.39733601 C7.41282306 43.6359191 7.41728463 46.87456005 7.42578125 50.11328125 C7.44328934 51.32800613 7.46079742 52.54273102 7.47883606 53.79426575 C7.47591049 54.92861557 7.47298492 56.06296539 7.4699707 57.23168945 C7.47877007 58.72488457 7.47877007 58.72488457 7.48774719 60.24824524 C6.86475454 63.76302302 5.43535273 65.44105231 3 68 C-0.71710563 69.85855282 -4.95277281 69.57908439 -9 69 C-12.34625024 66.47323961 -13.67977847 64.96066458 -15 61 C-15.10733796 59.29882964 -15.15869985 57.59385936 -15.17700195 55.8894043 C-15.18983719 54.84789719 -15.20267242 53.80639008 -15.21589661 52.73332214 C-15.22328354 51.60831802 -15.23067047 50.4833139 -15.23828125 49.32421875 C-15.246353 48.16630325 -15.25442474 47.00838776 -15.26274109 45.81538391 C-15.27657855 43.36334734 -15.28730221 40.91129153 -15.29516602 38.45922852 C-15.31238427 34.71268178 -15.35627576 30.96701614 -15.40039062 27.22070312 C-15.41051714 24.83854816 -15.41903337 22.45638569 -15.42578125 20.07421875 C-15.44328934 18.95528732 -15.46079742 17.8363559 -15.47883606 16.68351746 C-15.46158229 10.48537588 -15.24975457 6.66171812 -11 2 C-7.29825261 -0.4678316 -4.29506525 -0.68072732 0 0 Z " fill="#000000" transform="translate(249,213)"/>
</svg>
